<?xml version="1.0" encoding="UTF-8"?>
<svg version="1.1" xmlns="http://www.w3.org/2000/svg" width="500" height="500">
<path d="M0 0 C18.81 0 37.62 0 57 0 C67.32598519 27.53596051 67.32598519 27.53596051 70.62109375 36.8359375 C71.00329071 37.90888062 71.38548767 38.98182373 71.77926636 40.08728027 C72.58599314 42.35246426 73.3918786 44.61794804 74.19692993 46.88372803 C76.36916512 52.99693681 78.54820552 59.10772052 80.7265625 65.21875 C81.16835342 66.45857635 81.61014435 67.69840271 82.06532288 68.97579956 C86.08489894 80.25090063 90.13524434 91.51479283 94.19515991 102.77542114 C96.38996867 108.86397279 98.58144448 114.95372519 100.7736969 121.04319763 C102.59264458 126.09482276 104.41328907 131.14582685 106.23681641 136.19580078 C108.03420722 141.17390855 109.82700545 146.15364782 111.61654663 151.13458252 C112.28298133 152.9868858 112.95110328 154.83858299 113.6210022 156.68963623 C114.53556496 159.21732284 115.44427974 161.7470367 116.3515625 164.27734375 C116.62245193 165.02162125 116.89334137 165.76589874 117.17243958 166.5327301 C118.22752725 169.49152823 119 171.83285967 119 175 C89.63 175 60.26 175 30 175 C26.89000254 160.6940117 23.85304083 146.44707485 21.20483398 132.05810547 C20.67455848 129.17975301 20.13737936 126.30274202 19.59960938 123.42578125 C19.25741558 121.58080274 18.915603 119.73575348 18.57421875 117.890625 C18.33526131 116.6112204 18.33526131 116.6112204 18.09147644 115.30596924 C17.51606121 112.16404878 17 109.20155819 17 106 C16.34 106 15.68 106 15 106 C15.15033691 106.79069382 15.30067383 107.58138763 15.45556641 108.39604187 C16.87286752 115.85471621 18.28578738 123.31420091 19.69381714 130.77463055 C20.41781847 134.6098995 21.14349815 138.44483482 21.87304688 142.27905273 C22.57728961 145.98061138 23.27707981 149.68298668 23.97381592 153.38596535 C24.24015535 154.79721762 24.50808652 156.20817046 24.77764893 157.61881065 C25.1554822 159.59752709 25.52708862 161.57742943 25.8984375 163.55737305 C26.11161621 164.68322311 26.32479492 165.80907318 26.54443359 166.96903992 C27 170 27 170 27 175 C-2.37 175 -31.74 175 -62 175 C-59.75009279 164.87541758 -59.75009279 164.87541758 -57.96313477 159.94433594 C-57.56341461 158.83275116 -57.16369446 157.72116638 -56.75186157 156.57589722 C-56.10318619 154.79809372 -56.10318619 154.79809372 -55.44140625 152.984375 C-54.9801651 151.70770913 -54.51943406 150.43085886 -54.05917358 149.15383911 C-52.8232667 145.72875561 -51.58080622 142.30608394 -50.33713913 138.88381195 C-49.03201805 135.28874058 -47.73308138 131.69143707 -46.43383789 128.09423828 C-44.84157003 123.6866488 -43.24889104 119.27921121 -41.65361023 114.87271118 C-38.33140034 105.69509807 -35.02673728 96.51148688 -31.7421875 87.3203125 C-31.3352063 86.18152145 -30.9282251 85.04273041 -30.50891113 83.86943054 C-29.70922281 81.63146596 -28.90957998 79.39348512 -28.10998535 77.15548706 C-20.21017051 55.05266051 -12.17552826 33.00229658 -4 11 C-1.77835246 14.72080563 -1.14880011 18.68620072 -0.39599609 22.88964844 C-0.24940048 23.68027176 -0.10280487 24.47089508 0.04823303 25.28547668 C0.53012395 27.89241538 1.00337642 30.50084349 1.4765625 33.109375 C1.80947641 34.91979586 2.14292895 36.73011776 2.47689819 38.54034424 C3.35357089 43.30031435 4.22292199 48.06159337 5.09075928 52.82318115 C5.97796626 57.68371314 6.87208536 62.5429727 7.765625 67.40234375 C9.51718703 76.93366266 11.26101751 86.46637854 13 96 C14.62765139 92.74469722 13.30665892 89.42219399 12.62890625 85.97363281 C12.47138885 85.14417145 12.31387146 84.31471008 12.15158081 83.46011353 C11.80793557 81.65455412 11.4612863 79.84956453 11.11203003 78.04508209 C10.55959298 75.18809102 10.01597858 72.32955166 9.47485352 69.47039795 C7.93434006 61.33982229 6.37738344 53.21241874 4.81542969 45.0859375 C3.86131179 40.11858643 2.91720383 35.14941397 1.97897339 30.179039 C1.61929542 28.28529692 1.25565501 26.39230293 0.88796997 24.50009918 C0.37302128 21.84972839 -0.1292598 19.19723695 -0.62890625 16.54394531 C-0.78368439 15.76449554 -0.93846252 14.98504578 -1.09793091 14.18197632 C-2.02809436 9.14796647 -2.37027283 4.74054567 0 0 Z " fill="#F9F9F9" transform="translate(65,164)"/>
<path d="M0 0 C13.35257345 -0.11616202 26.70502547 -0.20485154 40.05800247 -0.25906086 C46.25922828 -0.28508668 52.46010682 -0.32035692 58.66113281 -0.37719727 C64.65230443 -0.43176656 70.64314329 -0.46147323 76.63454437 -0.47438622 C78.9133706 -0.4835814 81.19217987 -0.50153701 83.47086334 -0.52865028 C106.28788339 -0.78919502 106.28788339 -0.78919502 116 5 C117.134375 5.63164062 118.26875 6.26328125 119.4375 6.9140625 C120.7059375 7.76097656 120.7059375 7.76097656 122 8.625 C122.86625 9.19476563 123.7325 9.76453125 124.625 10.3515625 C125.40875 10.89554688 126.1925 11.43953125 127 12 C127.763125 12.52335938 128.52625 13.04671875 129.3125 13.5859375 C129.869375 14.05257812 130.42625 14.51921875 131 15 C131 15.66 131 16.32 131 17 C131.99 17.33 132.98 17.66 134 18 C145.6360406 28.48716571 153.99784649 45.69969503 155.17700195 61.34912109 C155.80962471 86.37678628 149.87835763 105.22191867 132.3515625 123.80859375 C130 126 130 126 128 126 C129.57968392 129.04357457 131.16390503 132.0847616 132.75 135.125 C133.23645996 136.05755615 133.72291992 136.9901123 134.22412109 137.95092773 C138.43674676 145.99327406 142.77856563 153.96094937 147.20214844 161.88916016 C147.68458008 162.76233887 148.16701172 163.63551758 148.6640625 164.53515625 C149.09154785 165.302229 149.5190332 166.06930176 149.95947266 166.85961914 C151 169 151 169 152 173 C130.88 173 109.76 173 88 173 C85.36 167.72 82.72 162.44 80 157 C78.17794436 153.49303269 76.34947871 149.99221811 74.5 146.5 C70.93701195 139.73719348 67.44570085 132.94785071 64.05859375 126.09545898 C61.29769135 120.53523069 58.4021906 115.05001795 55.5 109.5625 C52.14508326 103.21488079 48.92886065 96.83924437 45.9375 90.3125 C42.84241106 83.56985512 39.36130791 77.11371964 35.71069336 70.65722656 C32.64557623 65.21936201 29.79402962 59.70935746 27.0390625 54.10913086 C24.44903806 48.85720879 21.74255252 43.67373488 19 38.5 C13.37400841 27.86490186 7.91042805 17.17328411 2.87597656 6.24365234 C2.33700745 5.07410004 1.79803833 3.90454773 1.24273682 2.69955444 C0.83263367 1.80870148 0.42253052 0.91784851 0 0 Z " fill="#F8F8F8" transform="translate(191,166)"/>
<path d="M0 0 C34.65 0 69.3 0 105 0 C96.8810334 23.19704744 96.8810334 23.19704744 93.06738281 33.3894043 C92.77367798 34.17503754 92.47997314 34.96067078 92.17736816 35.77011108 C91.87133667 36.58847443 91.56530518 37.40683777 91.25 38.25 C90.58421105 40.03487524 89.91852549 41.81978905 89.25292969 43.60473633 C81.14440795 65.33497868 72.9920618 87.04893422 64.84472656 108.76464844 C64.56791172 109.50260588 64.29109688 110.24056332 64.00589371 111.0008831 C62.63243258 114.66199319 61.25790195 118.32269504 59.88116455 121.98257446 C57.37835091 128.63902905 54.88484482 135.29846499 52.42702103 141.97168636 C51.31872335 144.97962102 50.205451 147.98570352 49.09185028 150.99167824 C48.56542695 152.41727233 48.04157074 153.84381722 47.52039337 155.27133751 C46.80473314 157.2312196 46.08059019 159.18776458 45.35449219 161.14379883 C44.94656433 162.25443192 44.53863647 163.365065 44.11834717 164.50935364 C43 167 43 167 41 168 C41 133.02 41 98.04 41 62 C27.47 62 13.94 62 0 62 C0 41.54 0 21.08 0 0 Z " fill="#F6F6F6" transform="translate(350,167)"/>
<path d="M0 0 C13.2 0 26.4 0 40 0 C40 20.46 40 40.92 40 62 C26.47 62 12.94 62 -1 62 C-1 98.63 -1 135.26 -1 173 C-21.79 173 -42.58 173 -64 173 C-63.35737423 169.78687114 -62.81002753 167.19709859 -61.71582031 164.20825195 C-61.45700577 163.49611542 -61.19819122 162.78397888 -60.93153381 162.05026245 C-60.64990891 161.28730865 -60.368284 160.52435486 -60.078125 159.73828125 C-59.63435768 158.52375778 -59.63435768 158.52375778 -59.18162537 157.28469849 C-58.20846418 154.62579486 -57.22952072 151.96906682 -56.25 149.3125 C-55.5635319 147.44345032 -54.87709017 145.57439096 -54.19067383 143.70532227 C-49.59658051 131.21992308 -44.89730428 118.77773516 -40.11914062 106.36181641 C-35.42694221 94.16281268 -30.83131888 81.9285295 -26.25 69.6875 C-19.98419887 52.94850211 -13.69533303 36.21849049 -7.375 19.5 C-6.99911743 18.50567963 -6.62323486 17.51135925 -6.23596191 16.48690796 C-4.15813355 10.99095908 -2.07920857 5.4954272 0 0 Z " fill="#F8F8F8" transform="translate(457,167)"/>
<path d="M0 0 C2.5772543 2.5772543 3.73915416 4.09570514 5.3215332 7.2265625 C5.97497459 8.50853516 5.97497459 8.50853516 6.64161682 9.81640625 C7.10664108 10.74324219 7.57166534 11.67007813 8.05078125 12.625 C8.54114365 13.59050781 9.03150604 14.55601562 9.53672791 15.55078125 C11.13385735 18.69791251 12.72306902 21.8489748 14.3125 25 C15.96443773 28.25868381 17.61845083 31.51630897 19.27249146 34.77392578 C20.36210779 36.92038651 21.45103886 39.06719524 22.53927612 41.21435547 C26.40070586 48.83194598 30.30165071 56.42703674 34.25 64 C39.81299125 74.6868889 45.31881097 85.40235936 50.8125 96.125 C57.22017361 108.62963536 63.63061626 121.13279553 70.0625 133.625 C70.41155396 134.30314758 70.76060791 134.98129517 71.12023926 135.67999268 C76.01588355 145.18852005 80.94615108 154.67806362 85.95532227 164.12744141 C89 169.89446876 89 169.89446876 89 171 C59.63 171 30.26 171 0 171 C0 114.57 0 58.14 0 0 Z " fill="#F5F5F5" transform="translate(188,168)"/>
</svg>
