<?xml version="1.0" standalone="no"?>
<!DOCTYPE svg PUBLIC "-//W3C//DTD SVG 20010904//EN"
 "http://www.w3.org/TR/2001/REC-SVG-20010904/DTD/svg10.dtd">
<svg version="1.0" xmlns="http://www.w3.org/2000/svg"
 width="500.000000pt" height="500.000000pt" viewBox="0 0 500.000000 500.000000"
 preserveAspectRatio="xMidYMid meet">

<g transform="translate(0.000000,500.000000) scale(0.100000,-0.100000)"
fill="#000000" stroke="none">
<path d="M649 3333 c-9 -23 5 -111 74 -483 70 -378 81 -456 69 -458 -8 -2 -17
1 -21 6 -3 6 -39 193 -80 416 -41 224 -78 403 -81 399 -9 -11 -570 -1577 -570
-1592 0 -8 115 -11 435 -11 l435 0 0 21 c0 12 -27 166 -61 343 -37 200 -56
322 -50 324 6 2 14 3 18 3 5 0 37 -154 73 -343 l65 -343 438 -3 c357 -2 437 0
437 11 0 7 -139 400 -309 873 l-309 859 -276 3 -276 2 -11 -27z"/>
<path d="M1930 3324 c0 -3 31 -65 69 -138 37 -72 128 -248 201 -391 73 -143
159 -309 190 -370 32 -60 124 -240 205 -400 82 -159 163 -317 181 -350 l32
-60 306 -3 c168 -1 306 0 306 2 0 2 -54 106 -121 230 l-121 226 75 79 c79 85
140 190 173 296 14 46 18 92 18 195 0 120 -3 144 -27 215 -38 116 -91 199
-183 291 -66 67 -98 90 -179 130 l-98 49 -514 3 c-282 1 -513 0 -513 -4z"/>
<path d="M3718 3322 l-208 -2 0 -305 0 -305 205 0 205 0 0 -517 1 -518 309
824 c171 453 310 825 310 826 0 2 -583 0 -822 -3z"/>
<path d="M4575 3308 c-2 -7 -21 -56 -41 -108 -167 -442 -594 -1580 -594 -1584
0 -3 140 -6 310 -6 l310 0 0 550 0 550 205 0 205 0 0 305 0 305 -195 0 c-148
0 -197 -3 -200 -12z"/>
<path d="M1890 2453 l0 -843 436 0 436 0 -85 163 c-46 89 -216 419 -377 732
-161 314 -319 620 -351 680 l-59 110 0 -842z"/>
</g>
</svg>
