<?xml version="1.0" encoding="UTF-8"?>
<svg version="1.1" xmlns="http://www.w3.org/2000/svg" width="500" height="500">
<path d="M0 0 C0.85199478 -0.00860046 1.70398956 -0.01720093 2.58180237 -0.02606201 C3.51371902 -0.03032196 4.44563568 -0.03458191 5.40579224 -0.03897095 C6.8820533 -0.05123718 6.8820533 -0.05123718 8.38813782 -0.06375122 C11.65329382 -0.08860907 14.91840611 -0.10512817 18.18362427 -0.11953735 C19.30100101 -0.12486103 20.41837776 -0.13018471 21.56961441 -0.13566971 C27.49139978 -0.16241132 33.41316406 -0.18177734 39.33499146 -0.19619751 C44.22157659 -0.20950162 49.10774067 -0.23728811 53.99417114 -0.27822876 C59.90454177 -0.32774606 65.81453229 -0.35234302 71.72510147 -0.35942459 C73.96959708 -0.36610831 76.21408517 -0.38125448 78.45846176 -0.4053154 C98.08335961 -0.60358893 113.00628574 2.75749262 128.07034302 16.3765564 C143.3272448 31.90651235 151.27448599 50.6857595 151.17996216 72.34579468 C150.79523355 91.00085751 143.64252824 107.53779579 130.81643677 121.15390015 C128.87674939 122.97434445 126.95375043 124.56461563 124.81643677 126.15390015 C126.3454127 131.5053159 128.81767048 135.98694682 131.56643677 140.77890015 C135.05522142 146.9504982 138.38892384 153.15210016 141.50003052 159.5249939 C143.1871482 162.89422298 145.03763265 166.15633081 146.93362427 169.41171265 C147.81643677 171.15390015 147.81643677 171.15390015 147.81643677 173.15390015 C96.66643677 173.15390015 45.51643677 173.15390015 -7.18356323 173.15390015 C-7.18356323 116.39390015 -7.18356323 59.63390015 -7.18356323 1.15390015 C-4.44889923 0.24234548 -2.81665471 0.02121244 0 0 Z M-4.18356323 3.15390015 C-4.18356323 3.81390015 -4.18356323 4.47390015 -4.18356323 5.15390015 C-3.52356323 5.15390015 -2.86356323 5.15390015 -2.18356323 5.15390015 C-2.18356323 4.49390015 -2.18356323 3.83390015 -2.18356323 3.15390015 C-2.84356323 3.15390015 -3.50356323 3.15390015 -4.18356323 3.15390015 Z M-2.18356323 5.15390015 C-2.51356323 5.81390015 -2.84356323 6.47390015 -3.18356323 7.15390015 C-2.41854769 8.94930526 -2.41854769 8.94930526 -1.24606323 10.77890015 C-0.56543823 11.89265015 0.11518677 13.00640015 0.81643677 14.15390015 C1.47643677 13.82390015 2.13643677 13.49390015 2.81643677 13.15390015 C1.49643677 10.51390015 0.17643677 7.87390015 -1.18356323 5.15390015 C-1.51356323 5.15390015 -1.84356323 5.15390015 -2.18356323 5.15390015 Z M1.81643677 15.15390015 C2.14643677 15.81390015 2.47643677 16.47390015 2.81643677 17.15390015 C3.14643677 16.49390015 3.47643677 15.83390015 3.81643677 15.15390015 C3.15643677 15.15390015 2.49643677 15.15390015 1.81643677 15.15390015 Z M2.81643677 17.15390015 C3.46169654 18.61248735 4.10766397 20.07076151 4.75393677 21.52890015 C5.11358521 22.34100952 5.47323364 23.1531189 5.84378052 23.98983765 C6.47342707 25.390738 7.12956319 26.78015299 7.81643677 28.15390015 C8.47643677 28.15390015 9.13643677 28.15390015 9.81643677 28.15390015 C8.36693222 24.36288825 6.6647111 20.76643635 4.81643677 17.15390015 C4.15643677 17.15390015 3.49643677 17.15390015 2.81643677 17.15390015 Z M8.81643677 29.15390015 C11.98009705 36.51457708 15.57902489 43.58632283 19.35696411 50.64364624 C22.97723792 57.41593743 26.42161277 64.26600965 29.81643677 71.15390015 C30.47643677 71.15390015 31.13643677 71.15390015 31.81643677 71.15390015 C30.20988963 66.91034381 28.23898244 62.88454844 26.19143677 58.84140015 C25.47645977 57.42219644 24.76162018 56.00292349 24.04690552 54.58358765 C23.6800061 53.85623413 23.31310669 53.12888062 22.93508911 52.37948608 C21.821825 50.16462017 20.71793861 47.94533592 19.61721802 45.72421265 C19.26288696 45.01047485 18.90855591 44.29673706 18.54348755 43.56137085 C17.86727557 42.19862425 17.1923983 40.83521426 16.51907349 39.47103882 C13.90234531 34.17728727 13.90234531 34.17728727 10.81643677 29.15390015 C10.15643677 29.15390015 9.49643677 29.15390015 8.81643677 29.15390015 Z M30.81643677 72.15390015 C32.50317594 76.65187128 34.63317568 80.88276317 36.81643677 85.15390015 C37.47643677 85.15390015 38.13643677 85.15390015 38.81643677 85.15390015 C38.15858714 81.8570905 36.92223104 79.31272092 35.25393677 76.40390015 C34.79889771 75.6046814 34.34385864 74.80546265 33.87503052 73.98202515 C33.52569458 73.3787439 33.17635864 72.77546265 32.81643677 72.15390015 C32.15643677 72.15390015 31.49643677 72.15390015 30.81643677 72.15390015 Z M38.81643677 85.15390015 C38.48643677 85.81390015 38.15643677 86.47390015 37.81643677 87.15390015 C39.20736569 89.7777715 39.20736569 89.7777715 40.81643677 92.15390015 C41.47643677 91.82390015 42.13643677 91.49390015 42.81643677 91.15390015 C41.82643677 89.17390015 40.83643677 87.19390015 39.81643677 85.15390015 C39.48643677 85.15390015 39.15643677 85.15390015 38.81643677 85.15390015 Z M41.81643677 93.15390015 C43.42298581 97.3974615 45.39393831 101.42323239 47.44143677 105.46640015 C48.16812257 106.90904638 48.89468177 108.35175639 49.62112427 109.79452515 C49.98947388 110.52477905 50.35782349 111.25503296 50.73733521 112.00741577 C51.73161297 113.98517372 52.7176273 115.96671208 53.69924927 117.95077515 C62.40276314 135.52284188 71.61321805 152.83976392 80.81643677 170.15390015 C81.47643677 169.82390015 82.13643677 169.49390015 82.81643677 169.15390015 C82.55540161 168.6621228 82.29436646 168.17034546 82.02542114 167.66366577 C76.54663979 157.3297822 71.16286208 146.96004493 65.9692688 136.48007202 C58.76354248 121.9404362 51.50563869 107.44494211 43.81643677 93.15390015 C43.15643677 93.15390015 42.49643677 93.15390015 41.81643677 93.15390015 Z " fill="#070707" transform="translate(195.18356323242188,165.84609985351563)"/>
<path d="M0 0 C18.81 0 37.62 0 57 0 C67.32598519 27.53596051 67.32598519 27.53596051 70.62109375 36.8359375 C71.00329071 37.90888062 71.38548767 38.98182373 71.77926636 40.08728027 C72.58599314 42.35246426 73.3918786 44.61794804 74.19692993 46.88372803 C76.36916512 52.99693681 78.54820552 59.10772052 80.7265625 65.21875 C81.16835342 66.45857635 81.61014435 67.69840271 82.06532288 68.97579956 C86.08489894 80.25090063 90.13524434 91.51479283 94.19515991 102.77542114 C96.38996867 108.86397279 98.58144448 114.95372519 100.7736969 121.04319763 C102.59264458 126.09482276 104.41328907 131.14582685 106.23681641 136.19580078 C108.03420722 141.17390855 109.82700545 146.15364782 111.61654663 151.13458252 C112.28298133 152.9868858 112.95110328 154.83858299 113.6210022 156.68963623 C114.53556496 159.21732284 115.44427974 161.7470367 116.3515625 164.27734375 C116.62245193 165.02162125 116.89334137 165.76589874 117.17243958 166.5327301 C118.22752725 169.49152823 119 171.83285967 119 175 C88.97 175 58.94 175 28 175 C27.67 171.37 27.34 167.74 27 164 C26.69446371 161.9822723 26.35809047 159.96852981 25.96850586 157.96533203 C25.76837387 156.92120148 25.56824188 155.87707092 25.36204529 154.80130005 C25.14846878 153.71444916 24.93489227 152.62759827 24.71484375 151.5078125 C24.3840255 149.78436111 24.3840255 149.78436111 24.04652405 148.02609253 C23.34856923 144.39139865 22.64379837 140.75808108 21.9375 137.125 C21.22790832 133.47044646 20.51996327 129.81561907 19.81776428 126.15963745 C19.38256937 123.8939175 18.94315545 121.6290028 18.49900818 119.36502075 C18.30202835 118.33980316 18.10504852 117.31458557 17.90209961 116.25830078 C17.72746689 115.36104279 17.55283417 114.46378479 17.37290955 113.53933716 C16.99814722 110.98738344 16.93313025 108.57529076 17 106 C16.34 106 15.68 106 15 106 C15.15033691 106.79069382 15.30067383 107.58138763 15.45556641 108.39604187 C16.87286752 115.85471621 18.28578738 123.31420091 19.69381714 130.77463055 C20.41781847 134.6098995 21.14349815 138.44483482 21.87304688 142.27905273 C22.57728961 145.98061138 23.27707981 149.68298668 23.97381592 153.38596535 C24.24015535 154.79721762 24.50808652 156.20817046 24.77764893 157.61881065 C25.1554822 159.59752709 25.52708862 161.57742943 25.8984375 163.55737305 C26.11161621 164.68322311 26.32479492 165.80907318 26.54443359 166.96903992 C27 170 27 170 27 175 C-2.37 175 -31.74 175 -62 175 C-59.75009279 164.87541758 -59.75009279 164.87541758 -57.96313477 159.94433594 C-57.56341461 158.83275116 -57.16369446 157.72116638 -56.75186157 156.57589722 C-56.10318619 154.79809372 -56.10318619 154.79809372 -55.44140625 152.984375 C-54.9801651 151.70770913 -54.51943406 150.43085886 -54.05917358 149.15383911 C-52.8232667 145.72875561 -51.58080622 142.30608394 -50.33713913 138.88381195 C-49.03201805 135.28874058 -47.73308138 131.69143707 -46.43383789 128.09423828 C-44.84157003 123.6866488 -43.24889104 119.27921121 -41.65361023 114.87271118 C-38.33140034 105.69509807 -35.02673728 96.51148688 -31.7421875 87.3203125 C-31.3352063 86.18152145 -30.9282251 85.04273041 -30.50891113 83.86943054 C-29.70922281 81.63146596 -28.90957998 79.39348512 -28.10998535 77.15548706 C-20.21017051 55.05266051 -12.17552826 33.00229658 -4 11 C-1.68244764 14.47632854 -1.12552256 17.62789415 -0.39599609 21.65258789 C-0.24940048 22.43009903 -0.10280487 23.20761017 0.04823303 24.00868225 C0.53104131 26.57880481 1.00390152 29.15064984 1.4765625 31.72265625 C1.80945382 33.50730047 2.1429066 35.29184005 2.47689819 37.07627869 C3.17532026 40.81546709 3.86923788 44.55545233 4.55957031 48.29614258 C5.44581662 53.09824726 6.33963199 57.89890088 7.23635292 62.69905949 C8.08977447 67.2689572 8.93962587 71.83951643 9.7890625 76.41015625 C10.03365644 77.72408702 10.03365644 77.72408702 10.28319168 79.06456184 C10.74235448 81.53495146 11.19899932 84.00579204 11.65478516 86.47680664 C11.79190414 87.21296204 11.92902313 87.94911743 12.07029724 88.70758057 C13 93.77024883 13 93.77024883 13 96 C13.66 96 14.32 96 15 96 C14.82277405 95.33777435 14.6455481 94.67554871 14.46295166 93.99325562 C12.09562233 84.87071691 10.32787652 75.67486006 8.609375 66.4140625 C8.29741492 64.74164252 7.98542296 63.06922848 7.67340088 61.39682007 C7.02519593 57.9162716 6.38032626 54.43512283 5.73730469 50.95361328 C4.91403865 46.50008347 4.07779893 42.04909266 3.23855209 37.5985508 C2.59171399 34.15625152 1.95402992 30.71230233 1.31885529 27.26783371 C1.01440702 25.62541811 0.70660164 23.98362099 0.39531708 22.34248734 C-0.03811602 20.05241966 -0.45857308 17.76032086 -0.87597656 15.46728516 C-1.00576904 14.79705322 -1.13556152 14.12682129 -1.26928711 13.4362793 C-2.1205772 8.64863298 -2.2095261 4.4190522 0 0 Z " fill="#050505" transform="translate(65,164)"/>
<path d="M0 0 C48.51 0 97.02 0 147 0 C147 20.46 147 40.92 147 62 C133.47 62 119.94 62 106 62 C106 98.63 106 135.26 106 173 C85.21 173 64.42 173 43 173 C44.39830953 166.70760714 45.90149448 161.09282109 48.18359375 155.15234375 C48.5065593 154.29630554 48.82952484 153.44026733 49.16227722 152.55828857 C49.87194598 150.67955117 50.58442903 148.80187498 51.29937744 146.92514038 C52.47046554 143.85096347 53.63429646 140.77412205 54.79638672 137.6965332 C56.54778099 133.05922808 58.30184739 128.4229444 60.05712891 123.78710938 C65.02395093 110.66185207 69.9417159 97.51808806 74.86706543 84.37722778 C76.3291679 80.47640739 77.79196046 76.57584623 79.25499153 72.67537403 C88.21076009 48.79871457 97.13181283 24.90934857 106 1 C105.34 1 104.68 1 104 1 C103.87044922 2.1607605 103.87044922 2.1607605 103.73828125 3.3449707 C102.74228699 8.27586689 100.97958698 12.78888995 99.1875 17.48046875 C98.79083633 18.53262573 98.39417267 19.58478271 97.98548889 20.66882324 C96.6618781 24.17691567 95.33080682 27.68213179 94 31.1875 C93.06240411 33.66942955 92.1253201 36.15154408 91.18920898 38.6340332 C90.70427207 39.91990762 90.21933247 41.20578102 89.73439026 42.49165344 C89.49027468 43.13899256 89.2461591 43.78633167 88.99464607 44.45328712 C88.23723633 46.46097866 87.47909907 48.46839424 86.72080994 50.47575378 C81.60050747 64.03438299 76.53874884 77.61468538 71.48052502 91.19656944 C67.3447713 102.3010974 63.19849723 113.40170187 59.05266476 124.50247002 C57.55605228 128.50999149 56.06089091 132.51805179 54.56640625 136.52636719 C52.86651286 141.08415278 51.16144752 145.63995959 49.45089722 150.1937561 C48.86607414 151.75307673 48.28311772 153.31309893 47.70217896 154.87387085 C46.93281309 156.93999207 46.15689003 159.00351787 45.37890625 161.06640625 C44.75350952 162.7361853 44.75350952 162.7361853 44.11547852 164.43969727 C43 167 43 167 41 169 C41 133.69 41 98.38 41 62 C27.47 62 13.94 62 0 62 C0 41.54 0 21.08 0 0 Z " fill="#070707" transform="translate(350,167)"/>
</svg>
