<?xml version="1.0" standalone="no"?>
<!DOCTYPE svg PUBLIC "-//W3C//DTD SVG 20010904//EN"
 "http://www.w3.org/TR/2001/REC-SVG-20010904/DTD/svg10.dtd">
<svg version="1.0" xmlns="http://www.w3.org/2000/svg"
 width="500.000000pt" height="500.000000pt" viewBox="0 0 500.000000 500.000000"
 preserveAspectRatio="xMidYMid meet">

<g transform="translate(0.000000,500.000000) scale(0.100000,-0.100000)"
fill="#000000" stroke="none">
<path d="M1025 4643 c3 -148 8 -790 12 -1428 4 -638 8 -1152 11 -1142 2 9 7
17 12 17 17 0 28 -29 34 -95 10 -105 17 -145 26 -145 13 0 29 78 40 196 6 67
17 125 28 145 15 31 18 91 23 634 4 330 7 889 8 1243 l1 642 353 1 c193 0 813
4 1377 8 1050 7 1089 9 1062 44 -19 26 -12 64 13 75 14 6 25 16 25 22 0 5 13
10 29 10 17 0 32 4 35 9 18 29 -87 31 -1583 31 l-1511 0 5 -267z"/>
<path d="M2284 4485 c-8 -20 -7 -28 81 -608 41 -269 75 -497 75 -508 0 -14 -7
-19 -24 -19 -14 0 -27 4 -30 9 -3 5 -37 217 -76 472 -38 255 -71 471 -73 479
-2 13 -112 -358 -469 -1575 -43 -148 -81 -278 -84 -287 -5 -17 19 -18 415 -18
232 0 421 4 421 9 0 4 -27 185 -60 402 -33 217 -60 400 -60 407 0 7 12 12 29
12 22 0 30 -6 34 -22 3 -13 31 -200 63 -415 l59 -393 422 0 c333 0 421 3 418
13 -2 6 -79 269 -171 582 -91 314 -225 773 -298 1020 l-132 450 -267 3 c-235
2 -268 0 -273 -13z"/>
<path d="M1662 1323 l3 -998 418 -3 417 -2 0 315 0 315 30 0 30 0 2 -312 3
-313 420 0 420 0 3 998 2 997 -425 0 -425 0 0 -320 0 -320 -30 0 -30 0 0 320
0 320 -420 0 -420 0 2 -997z"/>
</g>
</svg>
