<?xml version="1.0" standalone="no"?>
<!DOCTYPE svg PUBLIC "-//W3C//DTD SVG 20010904//EN"
 "http://www.w3.org/TR/2001/REC-SVG-20010904/DTD/svg10.dtd">
<svg version="1.0" xmlns="http://www.w3.org/2000/svg"
 width="500.000000pt" height="500.000000pt" viewBox="0 0 500.000000 500.000000"
 preserveAspectRatio="xMidYMid meet">

<g transform="translate(0.000000,500.000000) scale(0.100000,-0.100000)"
fill="#000000" stroke="none">
<path d="M1602 4242 l-19 -57 193 -1065 c106 -586 193 -1073 194 -1082 0 -15
-9 -18 -44 -18 l-43 0 -15 83 c-9 45 -89 490 -179 989 -90 499 -167 904 -170
900 -4 -4 -306 -864 -672 -1912 l-664 -1905 1015 -3 c558 -1 1016 -1 1017 0 2
2 -263 1475 -289 1611 -6 28 -5 28 41 25 l47 -3 141 -780 c78 -429 144 -794
148 -812 5 -25 3 -33 -11 -36 -9 -3 448 -5 1016 -6 567 0 1032 2 1032 7 0 4
-323 933 -717 2064 l-718 2058 -642 0 -641 0 -20 -58z"/>
</g>
</svg>
