<?xml version="1.0" standalone="no"?>
<!DOCTYPE svg PUBLIC "-//W3C//DTD SVG 20010904//EN"
 "http://www.w3.org/TR/2001/REC-SVG-20010904/DTD/svg10.dtd">
<svg version="1.0" xmlns="http://www.w3.org/2000/svg"
 width="500.000000pt" height="500.000000pt" viewBox="0 0 500.000000 500.000000"
 preserveAspectRatio="xMidYMid meet">

<g transform="translate(0.000000,500.000000) scale(0.100000,-0.100000)"
fill="#000000" stroke="none">
<path d="M1334 4622 c-38 -25 -35 -47 92 -763 68 -382 124 -698 124 -702 0 -5
-14 -7 -32 -5 l-32 3 -111 627 c-60 346 -113 628 -117 628 -4 0 -10 -10 -13
-22 -6 -19 -401 -1175 -741 -2169 -46 -135 -84 -249 -84 -253 0 -3 288 -6 641
-6 l641 0 -6 28 c-4 15 -44 241 -91 502 -47 261 -88 487 -91 503 -5 25 -3 27
28 27 l34 0 28 -162 c38 -223 145 -837 152 -870 l6 -28 164 0 164 0 0 -755 0
-755 555 0 555 0 2 437 3 438 27 3 28 3 2 -438 3 -438 528 -3 527 -2 0 1290 0
1290 -545 0 -545 0 0 -430 0 -430 -30 0 -30 0 0 430 0 430 -244 0 -244 0 -25
73 c-13 39 -111 324 -217 632 -105 308 -216 632 -246 720 -30 87 -60 163 -67
167 -15 10 -778 10 -793 0z"/>
</g>
</svg>
