<?xml version="1.0" encoding="UTF-8" standalone="no"?>
<svg
   version="1.1"
   width="500"
   height="500"
   id="svg16"
   sodipodi:docname="368cac70-824a-468c-9393-f206a2ac5496.svg"
   xmlns:inkscape="http://www.inkscape.org/namespaces/inkscape"
   xmlns:sodipodi="http://sodipodi.sourceforge.net/DTD/sodipodi-0.dtd"
   xmlns="http://www.w3.org/2000/svg"
   xmlns:svg="http://www.w3.org/2000/svg">
  <defs
     id="defs16" />
  <sodipodi:namedview
     id="namedview16"
     pagecolor="#ffffff"
     bordercolor="#000000"
     borderopacity="0.25"
     inkscape:showpageshadow="2"
     inkscape:pageopacity="0.0"
     inkscape:pagecheckerboard="0"
     inkscape:deskcolor="#d1d1d1" />
  <path
     d="M0 0 C0.84498047 0.00708984 1.68996094 0.01417969 2.56054688 0.02148438 C3.48480469 0.0240625 4.4090625 0.02664062 5.36132812 0.02929688 C6.32425781 0.05765625 7.2871875 0.08601562 8.27929688 0.11523438 C9.24222656 0.11265625 10.20515625 0.11007813 11.19726562 0.10742188 C18.23608601 0.20559231 18.23608601 0.20559231 20.48608398 1.90234375 C21.88913847 3.76072213 22.55726948 5.27143314 23.25195312 7.49023438 C23.5069458 8.29396484 23.76193848 9.09769531 24.0246582 9.92578125 C24.29431396 10.81330078 24.56396973 11.70082031 24.84179688 12.61523438 C25.13272217 13.54916016 25.42364746 14.48308594 25.72338867 15.4453125 C29.12381646 26.49648355 32.26277581 37.62832399 35.40258789 48.75585938 C35.71592072 49.86471497 35.71592072 49.86471497 36.0355835 50.99597168 C36.42736695 52.38401573 36.8178815 53.77241886 37.20684814 55.16125488 C38.29468305 59.01768697 39.48255097 62.82401556 40.77929688 66.61523438 C41.43929687 66.28523438 42.09929687 65.95523438 42.77929688 65.61523438 C43.89072265 58.63934011 43.97074017 51.66705947 44.06054688 44.61523438 C44.09829832 42.32486964 44.136059 40.03450506 44.17382812 37.74414062 C44.22770586 34.15805819 44.27991989 30.57195541 44.33154297 26.98583984 C44.3830551 23.50806209 44.44032972 20.03041378 44.49804688 16.55273438 C44.51162231 15.47056641 44.52519775 14.38839844 44.53918457 13.2734375 C44.5559021 12.28150391 44.57261963 11.28957031 44.58984375 10.26757812 C44.60237183 9.39093506 44.6148999 8.51429199 44.62780762 7.61108398 C44.77929688 5.61523438 44.77929688 5.61523438 45.77929688 4.61523438 C47.97698256 4.50509101 50.17825075 4.4660918 52.37866211 4.45410156 C53.06809906 4.44913666 53.75753601 4.44417175 54.46786499 4.4390564 C56.75788353 4.42440216 59.04783282 4.41762774 61.33789062 4.41210938 C62.92350772 4.40636101 64.50912479 4.40060325 66.09474182 4.39483643 C69.42294642 4.38431743 72.7511268 4.37848052 76.0793457 4.375 C80.35140137 4.36951049 84.62313906 4.34547678 88.89509487 4.31702805 C92.17125901 4.29843773 95.44734598 4.29319803 98.72355843 4.29166412 C100.29888716 4.28862934 101.87421427 4.28057318 103.4494915 4.26747894 C105.65008876 4.25049141 107.84990154 4.25228011 110.05053711 4.25878906 C111.30438705 4.25514343 112.558237 4.2514978 113.8500824 4.2477417 C115.30004356 4.42965057 115.30004356 4.42965057 116.77929688 4.61523438 C119.22575648 8.28492378 119.01768274 10.95793086 118.93041992 15.19189453 C118.9225647 15.96125839 118.91470947 16.73062225 118.90661621 17.52330017 C118.87802987 20.0671995 118.83477953 22.61061687 118.79101562 25.15429688 C118.76738532 26.91880322 118.74451217 28.68331986 118.72236633 30.44784546 C118.67382941 34.14503962 118.61845999 37.84204672 118.55786133 41.5390625 C118.4802278 46.28846156 118.41590776 51.03792194 118.35620403 55.78757668 C118.30958368 59.43004415 118.2577983 63.07242274 118.20423317 66.71479416 C118.17874573 68.46675321 118.15445331 70.21873004 118.13135338 71.9707222 C118.09801169 74.41304527 118.05816987 76.8551725 118.01635742 79.29736328 C118.00745987 80.02776321 117.99856232 80.75816315 117.98939514 81.51069641 C117.89378682 86.50074443 117.89378682 86.50074443 116.77929688 87.61523438 C113.78514341 87.86155096 110.81450435 88.04004047 107.81445312 88.16992188 C106.87859879 88.21196747 105.94274445 88.25401306 104.97853088 88.29733276 C93.39348757 88.77198073 81.80958809 88.76614916 70.21679688 88.74023438 C68.48325455 88.73890503 68.48325455 88.73890503 66.71469116 88.73754883 C50.91820067 88.72341801 35.14522083 88.50309458 19.3581543 87.97338867 C3.83325505 87.46243517 -11.68927255 87.51857189 -27.22070312 87.61523438 C-28.62461325 83.82991465 -27.78769387 81.36594026 -26.58789062 77.58789062 C-26.19996338 76.34168945 -25.81203613 75.09548828 -25.41235352 73.81152344 C-25.19854034 73.14028442 -24.98472717 72.46904541 -24.76443481 71.77746582 C-23.60015747 68.12178478 -22.46773671 64.456257 -21.33398438 60.79101562 C-20.96505318 59.60184036 -20.96505318 59.60184036 -20.58866882 58.38864136 C-18.56125208 51.81499748 -16.64763915 45.21173942 -14.76367188 38.59570312 C-14.47421692 37.58109512 -14.18476196 36.56648712 -13.88653564 35.52113342 C-12.73033936 31.46373193 -11.57584298 27.40591739 -10.43377686 23.34451294 C-9.63068295 20.49024198 -8.81894181 17.63854818 -8.00585938 14.78710938 C-7.76868698 13.93324142 -7.53151459 13.07937347 -7.28715515 12.19963074 C-4.11460417 1.13992992 -4.11460417 1.13992992 0 0 Z "
     fill="#030303"
     transform="translate(205.220703125,150.384765625)"
     id="path1" />
  <path
     d="M0 0 C0.84498047 0.00708984 1.68996094 0.01417969 2.56054688 0.02148438 C3.48480469 0.0240625 4.4090625 0.02664062 5.36132812 0.02929688 C6.32425781 0.05765625 7.2871875 0.08601562 8.27929688 0.11523438 C9.24222656 0.11265625 10.20515625 0.11007813 11.19726562 0.10742188 C18.23608601 0.20559231 18.23608601 0.20559231 20.48608398 1.90234375 C21.88913847 3.76072213 22.55726948 5.27143314 23.25195312 7.49023438 C23.5069458 8.29396484 23.76193848 9.09769531 24.0246582 9.92578125 C24.29431396 10.81330078 24.56396973 11.70082031 24.84179688 12.61523438 C25.13272217 13.54916016 25.42364746 14.48308594 25.72338867 15.4453125 C29.12381646 26.49648355 32.26277581 37.62832399 35.40258789 48.75585938 C35.71592072 49.86471497 35.71592072 49.86471497 36.0355835 50.99597168 C36.42736695 52.38401573 36.8178815 53.77241886 37.20684814 55.16125488 C38.29468305 59.01768697 39.48255097 62.82401556 40.77929688 66.61523438 C41.43929687 66.28523438 42.09929687 65.95523438 42.77929688 65.61523438 C43.89072265 58.63934011 43.97074017 51.66705947 44.06054688 44.61523438 C44.09829832 42.32486964 44.136059 40.03450506 44.17382812 37.74414062 C44.22770586 34.15805819 44.27991989 30.57195541 44.33154297 26.98583984 C44.3830551 23.50806209 44.44032972 20.03041378 44.49804688 16.55273438 C44.51162231 15.47056641 44.52519775 14.38839844 44.53918457 13.2734375 C44.5559021 12.28150391 44.57261963 11.28957031 44.58984375 10.26757812 C44.60237183 9.39093506 44.6148999 8.51429199 44.62780762 7.61108398 C44.77929688 5.61523438 44.77929688 5.61523438 45.77929688 4.61523438 C47.97698256 4.50509101 50.17825075 4.4660918 52.37866211 4.45410156 C53.06809906 4.44913666 53.75753601 4.44417175 54.46786499 4.4390564 C56.75788353 4.42440216 59.04783282 4.41762774 61.33789062 4.41210938 C62.92350772 4.40636101 64.50912479 4.40060325 66.09474182 4.39483643 C69.42294642 4.38431743 72.7511268 4.37848052 76.0793457 4.375 C80.35140137 4.36951049 84.62313906 4.34547678 88.89509487 4.31702805 C92.17125901 4.29843773 95.44734598 4.29319803 98.72355843 4.29166412 C100.29888716 4.28862934 101.87421427 4.28057318 103.4494915 4.26747894 C105.65008876 4.25049141 107.84990154 4.25228011 110.05053711 4.25878906 C111.30438705 4.25514343 112.558237 4.2514978 113.8500824 4.2477417 C115.30004356 4.42965057 115.30004356 4.42965057 116.77929688 4.61523438 C119.22575648 8.28492378 119.01768274 10.95793086 118.93041992 15.19189453 C118.9225647 15.96125839 118.91470947 16.73062225 118.90661621 17.52330017 C118.87802987 20.0671995 118.83477953 22.61061687 118.79101562 25.15429688 C118.76738532 26.91880322 118.74451217 28.68331986 118.72236633 30.44784546 C118.67382941 34.14503962 118.61845999 37.84204672 118.55786133 41.5390625 C118.4802278 46.28846156 118.41590776 51.03792194 118.35620403 55.78757668 C118.30958368 59.43004415 118.2577983 63.07242274 118.20423317 66.71479416 C118.17874573 68.46675321 118.15445331 70.21873004 118.13135338 71.9707222 C118.09801169 74.41304527 118.05816987 76.8551725 118.01635742 79.29736328 C118.00745987 80.02776321 117.99856232 80.75816315 117.98939514 81.51069641 C117.89378682 86.50074443 117.89378682 86.50074443 116.77929688 87.61523438 C113.78514341 87.86155096 110.81450435 88.04004047 107.81445312 88.16992188 C106.87859879 88.21196747 105.94274445 88.25401306 104.97853088 88.29733276 C93.39348757 88.77198073 81.80958809 88.76614916 70.21679688 88.74023438 C68.48325455 88.73890503 68.48325455 88.73890503 66.71469116 88.73754883 C50.91820067 88.72341801 35.14522083 88.50309458 19.3581543 87.97338867 C3.83325505 87.46243517 -11.68927255 87.51857189 -27.22070312 87.61523438 C-28.62461325 83.82991465 -27.78769387 81.36594026 -26.58789062 77.58789062 C-26.19996338 76.34168945 -25.81203613 75.09548828 -25.41235352 73.81152344 C-25.19854034 73.14028442 -24.98472717 72.46904541 -24.76443481 71.77746582 C-23.60015747 68.12178478 -22.46773671 64.456257 -21.33398438 60.79101562 C-20.96505318 59.60184036 -20.96505318 59.60184036 -20.58866882 58.38864136 C-18.56125208 51.81499748 -16.64763915 45.21173942 -14.76367188 38.59570312 C-14.47421692 37.58109512 -14.18476196 36.56648712 -13.88653564 35.52113342 C-12.73033936 31.46373193 -11.57584298 27.40591739 -10.43377686 23.34451294 C-9.63068295 20.49024198 -8.81894181 17.63854818 -8.00585938 14.78710938 C-7.76868698 13.93324142 -7.53151459 13.07937347 -7.28715515 12.19963074 C-4.11460417 1.13992992 -4.11460417 1.13992992 0 0 Z M45.77929688 6.61523438 C45.77929688 33.01523438 45.77929688 59.41523438 45.77929688 86.61523438 C56.99929688 86.61523438 68.21929687 86.61523438 79.77929688 86.61523438 C79.77929688 78.36523438 79.77929688 70.11523438 79.77929688 61.61523438 C80.43929687 61.61523438 81.09929687 61.61523438 81.77929688 61.61523438 C81.77929688 69.86523438 81.77929688 78.11523438 81.77929688 86.61523438 C92.99929688 86.61523438 104.21929687 86.61523438 115.77929688 86.61523438 C115.77929688 60.21523437 115.77929688 33.81523437 115.77929688 6.61523438 C104.55929687 6.61523438 93.33929688 6.61523438 81.77929688 6.61523438 C81.77929688 15.19523438 81.77929688 23.77523437 81.77929688 32.61523438 C81.11929688 32.61523438 80.45929688 32.61523438 79.77929688 32.61523438 C79.77929688 24.03523438 79.77929688 15.45523438 79.77929688 6.61523438 C68.55929687 6.61523438 57.33929688 6.61523438 45.77929688 6.61523438 Z "
     fill="#030303"
     transform="translate(205.220703125,150.384765625)"
     id="path2" />
  <path
     d="M0 0 C0.84498047 0.00708984 1.68996094 0.01417969 2.56054688 0.02148438 C3.48480469 0.0240625 4.4090625 0.02664062 5.36132812 0.02929688 C6.32425781 0.05765625 7.2871875 0.08601562 8.27929688 0.11523438 C9.24222656 0.11265625 10.20515625 0.11007813 11.19726562 0.10742188 C18.23608601 0.20559231 18.23608601 0.20559231 20.48608398 1.90234375 C21.88913847 3.76072213 22.55726948 5.27143314 23.25195312 7.49023438 C23.5069458 8.29396484 23.76193848 9.09769531 24.0246582 9.92578125 C24.29431396 10.81330078 24.56396973 11.70082031 24.84179688 12.61523438 C25.13272217 13.54916016 25.42364746 14.48308594 25.72338867 15.4453125 C29.12381646 26.49648355 32.26277581 37.62832399 35.40258789 48.75585938 C35.71592072 49.86471497 35.71592072 49.86471497 36.0355835 50.99597168 C36.42736695 52.38401573 36.8178815 53.77241886 37.20684814 55.16125488 C38.29468305 59.01768697 39.48255097 62.82401556 40.77929688 66.61523438 C41.43929687 66.28523438 42.09929687 65.95523438 42.77929688 65.61523438 C43.89072265 58.63934011 43.97074017 51.66705947 44.06054688 44.61523438 C44.09829832 42.32486964 44.136059 40.03450506 44.17382812 37.74414062 C44.22770586 34.15805819 44.27991989 30.57195541 44.33154297 26.98583984 C44.3830551 23.50806209 44.44032972 20.03041378 44.49804688 16.55273438 C44.51162231 15.47056641 44.52519775 14.38839844 44.53918457 13.2734375 C44.5559021 12.28150391 44.57261963 11.28957031 44.58984375 10.26757812 C44.60237183 9.39093506 44.6148999 8.51429199 44.62780762 7.61108398 C44.77929688 5.61523438 44.77929688 5.61523438 45.77929688 4.61523438 C47.97698256 4.50509101 50.17825075 4.4660918 52.37866211 4.45410156 C53.06809906 4.44913666 53.75753601 4.44417175 54.46786499 4.4390564 C56.75788353 4.42440216 59.04783282 4.41762774 61.33789062 4.41210938 C62.92350772 4.40636101 64.50912479 4.40060325 66.09474182 4.39483643 C69.42294642 4.38431743 72.7511268 4.37848052 76.0793457 4.375 C80.35140137 4.36951049 84.62313906 4.34547678 88.89509487 4.31702805 C92.17125901 4.29843773 95.44734598 4.29319803 98.72355843 4.29166412 C100.29888716 4.28862934 101.87421427 4.28057318 103.4494915 4.26747894 C105.65008876 4.25049141 107.84990154 4.25228011 110.05053711 4.25878906 C111.30438705 4.25514343 112.558237 4.2514978 113.8500824 4.2477417 C115.30004356 4.42965057 115.30004356 4.42965057 116.77929688 4.61523438 C119.22575648 8.28492378 119.01768274 10.95793086 118.93041992 15.19189453 C118.9225647 15.96125839 118.91470947 16.73062225 118.90661621 17.52330017 C118.87802987 20.0671995 118.83477953 22.61061687 118.79101562 25.15429688 C118.76738532 26.91880322 118.74451217 28.68331986 118.72236633 30.44784546 C118.67382941 34.14503962 118.61845999 37.84204672 118.55786133 41.5390625 C118.4802278 46.28846156 118.41590776 51.03792194 118.35620403 55.78757668 C118.30958368 59.43004415 118.2577983 63.07242274 118.20423317 66.71479416 C118.17874573 68.46675321 118.15445331 70.21873004 118.13135338 71.9707222 C118.09801169 74.41304527 118.05816987 76.8551725 118.01635742 79.29736328 C118.00745987 80.02776321 117.99856232 80.75816315 117.98939514 81.51069641 C117.89378682 86.50074443 117.89378682 86.50074443 116.77929688 87.61523438 C113.78514341 87.86155096 110.81450435 88.04004047 107.81445312 88.16992188 C106.87859879 88.21196747 105.94274445 88.25401306 104.97853088 88.29733276 C93.39348757 88.77198073 81.80958809 88.76614916 70.21679688 88.74023438 C68.48325455 88.73890503 68.48325455 88.73890503 66.71469116 88.73754883 C50.91820067 88.72341801 35.14522083 88.50309458 19.3581543 87.97338867 C3.83325505 87.46243517 -11.68927255 87.51857189 -27.22070312 87.61523438 C-28.62461325 83.82991465 -27.78769387 81.36594026 -26.58789062 77.58789062 C-26.19996338 76.34168945 -25.81203613 75.09548828 -25.41235352 73.81152344 C-25.19854034 73.14028442 -24.98472717 72.46904541 -24.76443481 71.77746582 C-23.60015747 68.12178478 -22.46773671 64.456257 -21.33398438 60.79101562 C-20.96505318 59.60184036 -20.96505318 59.60184036 -20.58866882 58.38864136 C-18.56125208 51.81499748 -16.64763915 45.21173942 -14.76367188 38.59570312 C-14.47421692 37.58109512 -14.18476196 36.56648712 -13.88653564 35.52113342 C-12.73033936 31.46373193 -11.57584298 27.40591739 -10.43377686 23.34451294 C-9.63068295 20.49024198 -8.81894181 17.63854818 -8.00585938 14.78710938 C-7.76868698 13.93324142 -7.53151459 13.07937347 -7.28715515 12.19963074 C-4.11460417 1.13992992 -4.11460417 1.13992992 0 0 Z M-2.22070312 3.61523438 C-1.67842218 11.5325362 -0.7964896 19.37069175 0.21679688 27.24023438 C0.33901611 28.20517822 0.46123535 29.17012207 0.5871582 30.16430664 C1.40163879 36.3747873 2.46849838 42.4903674 3.77929688 48.61523438 C3.11929688 48.61523438 2.45929688 48.61523438 1.77929688 48.61523438 C1.82054687 47.64585937 1.86179688 46.67648438 1.90429688 45.67773438 C1.90711838 42.83930492 1.55944806 40.3660589 0.87304688 37.61523438 C-0.43039252 31.97644219 -1.13602598 26.29170516 -1.84570312 20.55273438 C-1.97976562 19.49634766 -2.11382812 18.43996094 -2.25195312 17.3515625 C-2.57861913 14.77323439 -2.90145511 12.19448964 -3.22070312 9.61523438 C-5.11235189 12.45270753 -5.90124496 14.4490196 -6.85302734 17.67480469 C-7.16029755 18.70728333 -7.46756775 19.73976196 -7.78414917 20.80352783 C-8.11125885 21.92217224 -8.43836853 23.04081665 -8.77539062 24.19335938 C-9.11821075 25.35212585 -9.46103088 26.51089233 -9.8142395 27.70477295 C-10.54115531 30.16543056 -11.26560468 32.62681793 -11.98779297 35.08886719 C-13.07956004 38.81020985 -14.17871122 42.52930397 -15.27929688 46.24804688 C-22.05951316 65.61229438 -22.05951316 65.61229438 -25.22070312 85.61523438 C-14.33070313 85.61523438 -3.44070312 85.61523438 7.77929688 85.61523438 C7.32554687 81.84085937 6.87179688 78.06648438 6.40429688 74.17773438 C6.26588379 73.00670166 6.1274707 71.83566895 5.98486328 70.62915039 C5.23502384 64.51821752 4.22673643 58.60008227 2.77929688 52.61523438 C3.43929687 52.61523438 4.09929687 52.61523438 4.77929688 52.61523438 C4.89990479 53.58178955 4.89990479 53.58178955 5.02294922 54.56787109 C5.39630627 57.54247757 5.77527176 60.51634502 6.15429688 63.49023438 C6.280625 64.5034375 6.40695313 65.51664063 6.53710938 66.56054688 C6.66601562 67.56601563 6.79492188 68.57148438 6.92773438 69.60742188 C7.10054932 70.97423096 7.10054932 70.97423096 7.27685547 72.36865234 C7.9641083 76.8094143 8.89802412 81.20887062 9.77929688 85.61523438 C20.66929687 85.61523438 31.55929688 85.61523438 42.77929688 85.61523438 C41.98289308 78.94537575 41.98289308 78.94537575 40.47583008 72.61816406 C40.21498123 71.72232605 39.95413239 70.82648804 39.68537903 69.90350342 C39.40312973 68.95759338 39.12088043 68.01168335 38.83007812 67.03710938 C38.53497849 66.03045227 38.23987885 65.02379517 37.93583679 63.9866333 C36.99359925 60.7777675 36.04279917 57.57151213 35.09179688 54.36523438 C34.47210148 52.25862666 33.85295625 50.15185702 33.234375 48.04492188 C31.42719152 41.89835808 29.60645254 35.75588825 27.77929688 29.61523438 C27.49101013 28.64626221 27.20272339 27.67729004 26.90570068 26.67895508 C26.08784535 23.93326858 25.26810138 21.1881562 24.44726562 18.44335938 C24.08547966 17.23108673 24.08547966 17.23108673 23.71638489 15.99432373 C23.37663887 14.86163055 23.37663887 14.86163055 23.0300293 13.70605469 C22.83567795 13.05711243 22.6413266 12.40817017 22.44108582 11.73956299 C21.59348409 9.01877924 20.68046794 6.31874757 19.77929688 3.61523438 C12.51929688 3.61523438 5.25929687 3.61523438 -2.22070312 3.61523438 Z M45.77929688 6.61523438 C45.77929688 33.01523438 45.77929688 59.41523438 45.77929688 86.61523438 C56.99929688 86.61523438 68.21929687 86.61523438 79.77929688 86.61523438 C79.77929688 78.36523438 79.77929688 70.11523438 79.77929688 61.61523438 C80.43929687 61.61523438 81.09929687 61.61523438 81.77929688 61.61523438 C81.77929688 69.86523438 81.77929688 78.11523438 81.77929688 86.61523438 C92.99929688 86.61523438 104.21929687 86.61523438 115.77929688 86.61523438 C115.77929688 60.21523437 115.77929688 33.81523437 115.77929688 6.61523438 C104.55929687 6.61523438 93.33929688 6.61523438 81.77929688 6.61523438 C81.77929688 15.19523438 81.77929688 23.77523437 81.77929688 32.61523438 C81.11929688 32.61523438 80.45929688 32.61523438 79.77929688 32.61523438 C79.77929688 24.03523438 79.77929688 15.45523438 79.77929688 6.61523438 C68.55929687 6.61523438 57.33929688 6.61523438 45.77929688 6.61523438 Z "
     fill="#FCFCFC"
     transform="translate(205.220703125,150.384765625)"
     id="path3" />
  <path
     d="M0 0 C0.84498047 0.00708984 1.68996094 0.01417969 2.56054688 0.02148438 C3.48480469 0.0240625 4.4090625 0.02664062 5.36132812 0.02929688 C6.32425781 0.05765625 7.2871875 0.08601562 8.27929688 0.11523438 C9.24222656 0.11265625 10.20515625 0.11007813 11.19726562 0.10742188 C18.23299787 0.20554924 18.23299787 0.20554924 20.48388672 1.89355469 C21.91373312 3.79390841 22.58195883 5.36220387 23.28710938 7.63085938 C23.54758057 8.45537598 23.80805176 9.27989258 24.07641602 10.12939453 C24.3496167 11.03222168 24.62281738 11.93504883 24.90429688 12.86523438 C25.34020142 14.2794165 25.34020142 14.2794165 25.78491211 15.72216797 C26.43044725 17.83106206 27.07032355 19.94169379 27.70556641 22.05371094 C28.4669539 24.5792045 29.23535294 27.10166715 30.01318359 29.62207031 C31.09424375 33.12727009 32.15855768 36.6371909 33.21209717 40.15075684 C33.63114536 41.54124786 34.05483952 42.93034738 34.48321533 44.31799316 C35.08703702 46.28031074 35.67166588 48.24741135 36.25195312 50.21679688 C36.59492432 51.35455566 36.93789551 52.49231445 37.29125977 53.66455078 C37.82019114 56.86248203 37.57981778 57.98527806 35.77929688 60.61523438 C35.53808105 59.78088867 35.29686523 58.94654297 35.04833984 58.08691406 C34.12448436 54.89317686 33.19991932 51.6996473 32.2746582 48.50631714 C31.86192097 47.08181737 31.44932275 45.65727732 31.03686523 44.23269653 C28.27434543 34.69505605 25.48517214 25.16723175 22.54443359 15.68261719 C22.32287598 14.9578418 22.10131836 14.23306641 21.87304688 13.48632812 C21.68419922 12.87716553 21.49535156 12.26800293 21.30078125 11.64038086 C20.62182263 9.00369465 20.22690611 6.30088978 19.77929688 3.61523438 C12.51929688 3.61523438 5.25929687 3.61523438 -2.22070312 3.61523438 C-1.52953454 8.54523022 -0.83667204 13.47492472 -0.1394043 18.40405273 C0.09728494 20.08099352 0.33296878 21.75807653 0.56762695 23.43530273 C0.90507079 25.84592161 1.24612562 28.25600608 1.58789062 30.66601562 C1.69209824 31.41611404 1.79630585 32.16621246 1.90367126 32.93904114 C2.33384232 35.95153781 2.81452988 38.72093339 3.77929688 41.61523438 C3.81883922 43.94823263 3.8233142 46.28231626 3.77929688 48.61523438 C3.11929688 48.61523438 2.45929688 48.61523438 1.77929688 48.61523438 C-0.52432345 36.65176613 -2.49890171 24.67761712 -4.22070312 12.61523438 C-6.41207253 19.9564938 -8.59858513 27.29918793 -10.78198242 34.64282227 C-11.52276955 37.13240016 -12.26460218 39.62166724 -13.00756836 42.1105957 C-17.31934594 56.5578127 -21.48234069 71.00833896 -25.22070312 85.61523438 C-14.33070313 85.61523438 -3.44070312 85.61523438 7.77929688 85.61523438 C6.78929687 80.66523438 6.78929687 80.66523438 5.77929688 75.61523438 C5.21803182 72.32488234 4.67208091 69.037145 4.15429688 65.74023438 C4.02023438 64.91265625 3.88617188 64.08507812 3.74804688 63.23242188 C3.62171875 62.43320313 3.49539062 61.63398438 3.36523438 60.81054688 C3.25228027 60.09914551 3.13932617 59.38774414 3.02294922 58.65478516 C2.77929688 56.61523438 2.77929688 56.61523438 2.77929688 52.61523438 C3.43929687 52.61523438 4.09929687 52.61523438 4.77929688 52.61523438 C7.15713187 63.89730256 9.0493834 75.21743564 10.77929688 86.61523438 C6.88969861 87.88683381 2.99366109 87.74174624 -1.04882812 87.71289062 C-1.79783386 87.71147568 -2.5468396 87.71006073 -3.31854248 87.70860291 C-5.70263725 87.70302097 -8.08663691 87.69047183 -10.47070312 87.67773438 C-12.09049343 87.67271704 -13.71028522 87.66815454 -15.33007812 87.6640625 C-19.29365624 87.65305745 -23.25716358 87.63580528 -27.22070312 87.61523438 C-28.62461325 83.82991465 -27.78769387 81.36594026 -26.58789062 77.58789062 C-26.19996338 76.34168945 -25.81203613 75.09548828 -25.41235352 73.81152344 C-25.19854034 73.14028442 -24.98472717 72.46904541 -24.76443481 71.77746582 C-23.60015747 68.12178478 -22.46773671 64.456257 -21.33398438 60.79101562 C-20.96505318 59.60184036 -20.96505318 59.60184036 -20.58866882 58.38864136 C-18.56125208 51.81499748 -16.64763915 45.21173942 -14.76367188 38.59570312 C-14.47421692 37.58109512 -14.18476196 36.56648712 -13.88653564 35.52113342 C-12.73033936 31.46373193 -11.57584298 27.40591739 -10.43377686 23.34451294 C-9.63068295 20.49024198 -8.81894181 17.63854818 -8.00585938 14.78710938 C-7.76868698 13.93324142 -7.53151459 13.07937347 -7.28715515 12.19963074 C-4.11460417 1.13992992 -4.11460417 1.13992992 0 0 Z "
     fill="#EDEDED"
     transform="translate(205.220703125,150.384765625)"
     id="path4" />
  <path
     d="M0 0 C0.66 0 1.32 0 2 0 C2.14622803 1.04454346 2.29245605 2.08908691 2.44311523 3.1652832 C2.9863324 7.04019842 3.53325478 10.91458313 4.08129883 14.78881836 C4.31798806 16.46575915 4.55367191 18.14284216 4.78833008 19.82006836 C5.12577392 22.23068724 5.46682874 24.6407717 5.80859375 27.05078125 C5.91280136 27.80087967 6.01700897 28.55097809 6.12437439 29.32380676 C6.55454545 32.33630344 7.035233 35.10569901 8 38 C8.03954234 40.33299825 8.04401732 42.66708189 8 45 C7.34 45 6.68 45 6 45 C3.69616113 33.03539681 1.72342088 21.06394619 0 9 C-2.97 18.9 -5.94 28.8 -9 39 C-9.66 39 -10.32 39 -11 39 C-9.57713519 30.81410665 -7.33393412 22.9481017 -4.9375 15 C-4.57333984 13.77410156 -4.20917969 12.54820312 -3.83398438 11.28515625 C-1.14593707 2.29187414 -1.14593707 2.29187414 0 0 Z "
     fill="#F5F5F5"
     transform="translate(201,154)"
     id="path5" />
  <path
     d="M0 0 C1.23773481 3.54723663 0.74612532 5.80011154 -0.29296875 9.3671875 C-0.59195068 10.41205322 -0.89093262 11.45691895 -1.19897461 12.53344727 C-1.52518799 13.63615967 -1.85140137 14.73887207 -2.1875 15.875 C-2.51049072 16.99511475 -2.83348145 18.11522949 -3.16625977 19.26928711 C-3.80924633 21.49662093 -4.45621837 23.72280859 -5.10742188 25.94775391 C-6.23794366 29.81366841 -7.33834012 33.68756318 -8.4375 37.5625 C-8.95759393 39.37521231 -9.47806532 41.18781684 -10 43 C-12 40 -12 40 -11.56640625 37.015625 C-11.23511719 35.77296875 -10.90382812 34.5303125 -10.5625 33.25 C-10.38291748 32.5705835 -10.20333496 31.89116699 -10.01831055 31.19116211 C-7.69962033 22.59691736 -5.10004564 14.07530891 -2.48828125 5.56640625 C-2.09443237 4.28165405 -2.09443237 4.28165405 -1.69262695 2.97094727 C-1 1 -1 1 0 0 Z "
     fill="#F4F4F4"
     transform="translate(190,193)"
     id="path6" />
  <path
     d="M0 0 C0.33 0 0.66 0 1 0 C1.11593506 0.89307861 1.23187012 1.78615723 1.35131836 2.70629883 C1.78318799 6.02204753 2.21771741 9.33742508 2.65405273 12.65258789 C2.8422944 14.08701856 3.02947721 15.5215886 3.21557617 16.95629883 C3.48337482 19.01941959 3.75498713 21.08200788 4.02734375 23.14453125 C4.18968506 24.38565674 4.35202637 25.62678223 4.51928711 26.90551758 C4.91585401 30.02565061 4.91585401 30.02565061 6 33 C6.03954234 35.33299825 6.04401732 37.66708189 6 40 C5.34 40 4.68 40 4 40 C3.11094067 35.38281853 2.24051641 30.76279033 1.39355469 26.13769531 C1.04302172 24.23368371 0.68237212 22.33154091 0.3203125 20.4296875 C-0.92043685 13.37611244 -1.05135722 7.08955749 0 0 Z "
     fill="#CECECE"
     transform="translate(203,159)"
     id="path7" />
  <path
     d="M0 0 C3.45831586 -0.02894547 6.91660072 -0.04678 10.375 -0.0625 C11.35984375 -0.07087891 12.3446875 -0.07925781 13.359375 -0.08789062 C14.77089844 -0.09272461 14.77089844 -0.09272461 16.2109375 -0.09765625 C17.51490479 -0.10551147 17.51490479 -0.10551147 18.84521484 -0.11352539 C21 0 21 0 23 1 C23 1.66 23 2.32 23 3 C15.08 3 7.16 3 -1 3 C-0.67 2.01 -0.34 1.02 0 0 Z "
     fill="#DEDEDE"
     transform="translate(203,151)"
     id="path8" />
  <path
     d="M0 0 C0.66 0 1.32 0 2 0 C7.37461417 24.74350674 7.37461417 24.74350674 4 31 C3.32858852 26.584041 2.66368993 22.16712555 2 17.75 C1.80921875 16.49574219 1.6184375 15.24148437 1.421875 13.94921875 C1.24140625 12.74394531 1.0609375 11.53867188 0.875 10.296875 C0.70742187 9.18666992 0.53984375 8.07646484 0.3671875 6.93261719 C0 4 0 4 0 0 Z "
     fill="#CECECE"
     transform="translate(208,203)"
     id="path9" />
  <path
     d="M0 0 C2 1 2 1 2.80957031 2.99365234 C3.6367958 5.78383032 4.45438646 8.57561902 5.25 11.375 C5.69085938 12.83292969 5.69085938 12.83292969 6.140625 14.3203125 C6.40875 15.25359375 6.676875 16.186875 6.953125 17.1484375 C7.20223633 18.00614746 7.45134766 18.86385742 7.70800781 19.74755859 C8 22 8 22 6 25 C4.99131083 21.58583753 3.99457679 18.16829771 3 14.75 C2.71382812 13.78191406 2.42765625 12.81382812 2.1328125 11.81640625 C1.86210937 10.88183594 1.59140625 9.94726562 1.3125 8.984375 C0.93544922 7.69611816 0.93544922 7.69611816 0.55078125 6.38183594 C0 4 0 4 0 0 Z "
     fill="#F4F4F4"
     transform="translate(235,186)"
     id="path10" />
  <path
     d="M0 0 C0.33 0.99 0.66 1.98 1 3 C5.29 3 9.58 3 14 3 C14.33 3.66 14.66 4.32 15 5 C10.05 5 5.1 5 0 5 C-0.33 3.68 -0.66 2.36 -1 1 C-0.67 0.67 -0.34 0.34 0 0 Z "
     fill="#FCFCFC"
     transform="translate(178,233)"
     id="path11" />
  <path
     d="M0 0 C0.66 0 1.32 0 2 0 C0.68 5.28 -0.64 10.56 -2 16 C-4 13 -4 13 -3.57421875 10.1171875 C-3.28160156 9.04726562 -2.98898438 7.97734375 -2.6875 6.875 C-2.26017578 5.26238281 -2.26017578 5.26238281 -1.82421875 3.6171875 C-1 1 -1 1 0 0 Z "
     fill="#DFDFDF"
     transform="translate(182,220)"
     id="path12" />
  <path
     d="M0 0 C0.66 0 1.32 0 2 0 C2.53394179 1.4117783 3.05165104 2.82970244 3.5625 4.25 C3.85253906 5.03890625 4.14257812 5.8278125 4.44140625 6.640625 C5.04522837 9.19103452 4.8473932 10.55322229 4 13 C1.97944157 8.60748167 0.59104765 4.84659077 0 0 Z "
     fill="#F4F4F4"
     transform="translate(225,154)"
     id="path13" />
  <path
     d="M0 0 C0.66 0 1.32 0 2 0 C3.00496852 3.01490557 3.10335303 5.04181692 3.0625 8.1875 C3.05347656 9.08855469 3.04445312 9.98960937 3.03515625 10.91796875 C3.02355469 11.60503906 3.01195312 12.29210937 3 13 C1.32889958 10.03821227 0.67317248 7.62928808 0.375 4.25 C0.30023438 3.45078125 0.22546875 2.6515625 0.1484375 1.828125 C0.09945312 1.22484375 0.05046875 0.6215625 0 0 Z "
     fill="#DADADA"
     transform="translate(208,203)"
     id="path14" />
  <path
     d="M0 0 C2.35953094 2.35953094 2.49141413 3.77895617 3 7 C1.68 7.33 0.36 7.66 -1 8 C-1.33 7.34 -1.66 6.68 -2 6 C-1.34 6 -0.68 6 0 6 C0 4.02 0 2.04 0 0 Z "
     fill="#E9E9E9"
     transform="translate(213,230)"
     id="path15" />
  <path
     d="M0 0 C0.33 0 0.66 0 1 0 C1 2.97 1 5.94 1 9 C0.01 9 -0.98 9 -2 9 C-1.34 6.03 -0.68 3.06 0 0 Z "
     fill="#2C2C2C"
     transform="translate(201,160)"
     id="path16" />
</svg>
