<?xml version="1.0" standalone="no"?>
<!DOCTYPE svg PUBLIC "-//W3C//DTD SVG 20010904//EN"
 "http://www.w3.org/TR/2001/REC-SVG-20010904/DTD/svg10.dtd">
<svg version="1.0" xmlns="http://www.w3.org/2000/svg"
 width="500.000000pt" height="500.000000pt" viewBox="0 0 500.000000 500.000000"
 preserveAspectRatio="xMidYMid meet">

<g transform="translate(0.000000,500.000000) scale(0.100000,-0.100000)"
fill="#000000" stroke="none">
<path d="M1025 2455 l0 -2455 1603 0 1602 0 0 2455 0 2455 -1602 0 -1603 0 0
-2455z m3015 0 l0 -2255 -1410 0 -1410 0 0 2255 0 2255 1410 0 1410 0 0 -2255z"/>
<path d="M2280 4474 c0 -14 36 -262 80 -550 44 -289 80 -536 80 -549 0 -21 -5
-25 -30 -25 -16 0 -30 2 -30 5 0 7 -140 927 -143 945 -4 20 -13 -8 -302 -995
-135 -462 -248 -848 -251 -857 -5 -17 19 -18 415 -18 232 0 421 2 421 5 0 3
-27 182 -60 397 -33 216 -60 401 -60 411 0 12 8 17 29 17 24 0 30 -5 35 -27
11 -54 116 -758 116 -780 l0 -23 425 0 c335 0 423 3 420 13 -4 11 -411 1401
-544 1857 l-57 195 -272 3 -272 2 0 -26z"/>
<path d="M3162 3818 c1 -46 3 -66 5 -45 4 33 7 37 33 37 24 0 30 -6 41 -37 7
-21 14 -32 16 -26 3 7 -2 26 -10 42 -13 26 -13 32 -1 42 36 29 4 69 -55 69
l-31 0 2 -82z m62 66 c9 -3 16 -17 16 -30 0 -21 -5 -24 -35 -24 -32 0 -35 2
-35 30 0 31 17 38 54 24z"/>
<path d="M3310 3891 c23 -6 25 -13 31 -81 l5 -75 2 77 c2 75 2 77 30 81 15 2
0 4 -33 5 -39 0 -51 -2 -35 -7z"/>
<path d="M1660 1320 l0 -1000 420 0 420 0 0 320 0 320 30 0 30 0 2 -317 3
-318 423 -3 422 -2 0 1000 0 1000 -425 0 -425 0 0 -325 0 -325 -30 0 -30 0 0
325 0 325 -420 0 -420 0 0 -1000z"/>
<path d="M3465 1481 c-3 -6 7 -9 21 -8 40 3 40 -20 0 -37 -25 -10 -36 -21 -36
-35 0 -25 43 -39 65 -21 10 9 15 9 15 1 0 -6 3 -11 8 -11 10 0 2 93 -10 108
-12 14 -54 16 -63 3z m53 -73 c-3 -25 -34 -36 -51 -19 -14 14 9 41 35 41 14 0
19 -6 16 -22z"/>
<path d="M3582 1441 c3 -62 24 -85 57 -64 15 10 21 10 24 0 3 -7 5 17 5 53 -1
63 -1 64 -7 16 -7 -59 -33 -83 -57 -51 -8 10 -13 34 -12 52 1 18 -1 36 -6 40
-4 4 -6 -17 -4 -46z"/>
<path d="M3720 1475 c-16 -19 0 -40 35 -49 28 -7 33 -33 9 -43 -9 -3 -25 -1
-35 6 -11 6 -19 7 -19 2 0 -25 66 -28 79 -3 12 23 3 38 -32 51 -15 6 -27 18
-27 27 0 13 6 15 30 10 19 -3 29 -2 25 4 -9 15 -51 12 -65 -5z"/>
</g>
</svg>
