<?xml version="1.0" encoding="UTF-8"?>
<svg version="1.1" xmlns="http://www.w3.org/2000/svg" width="430" height="580">
<path d="M0 0 C31.35 0 62.7 0 95 0 C95 23.76 95 47.52 95 72 C96.65 72 98.3 72 100 72 C100 48.24 100 24.48 100 0 C123.66865404 -0.04010881 123.66865404 -0.04010881 133.72070312 -0.04882812 C140.5925371 -0.054817 147.46435782 -0.06191848 154.33618164 -0.07543945 C159.87339995 -0.08626687 165.41060404 -0.09227652 170.94783211 -0.09487724 C173.06544277 -0.09673176 175.18305262 -0.10035286 177.30065727 -0.10573006 C180.25571274 -0.11293856 183.21070871 -0.11399102 186.16577148 -0.11352539 C187.05049637 -0.11712067 187.93522125 -0.12071594 188.84675598 -0.12442017 C194.88594784 -0.11405216 194.88594784 -0.11405216 196 1 C196.09793251 3.85732724 196.12992391 6.69048495 196.12025452 9.54823303 C196.12153615 10.90933761 196.12153615 10.90933761 196.12284368 12.29793924 C196.12450127 15.36278962 196.11897258 18.42758623 196.11352539 21.49243164 C196.11324355 23.67974344 196.11340119 25.86705533 196.1139679 28.05436707 C196.114256 34.01280372 196.10835714 39.97122045 196.10139394 45.92965245 C196.09516259 52.14901839 196.09455678 58.36838472 196.09336853 64.5877533 C196.09060885 75.03319642 196.08435336 85.47863268 196.07543945 95.92407227 C196.066266 106.68481408 196.05918484 117.4455539 196.05493164 128.20629883 C196.05466892 128.86914912 196.05440619 129.53199942 196.05413551 130.21493609 C196.05283051 133.54012926 196.05156904 136.86532244 196.05032361 140.19051564 C196.03985774 167.79368339 196.02151145 195.39683849 196 223 C164.32 223 132.64 223 100 223 C100 199.9 100 176.8 100 153 C98.35 153 96.7 153 95 153 C95 176.1 95 199.2 95 223 C63.65 223 32.3 223 0 223 C0 149.41 0 75.82 0 0 Z " fill="#030303" transform="translate(113,312)"/>
<path d="M0 0 C1.82268784 0.47343743 3.64370303 0.95419898 5.45598125 1.46604037 C10.93452211 2.61592169 16.59765001 2.28729024 22.17346191 2.2784729 C23.61580006 2.28348048 25.0581354 2.28935763 26.50046682 2.29602563 C30.45015421 2.31178374 34.39977037 2.315254 38.3494854 2.31667423 C42.61389047 2.32037561 46.87825681 2.33553477 51.14263916 2.34928894 C58.52642916 2.37154242 65.91020535 2.3865672 73.29402161 2.39665604 C83.96972237 2.41125321 94.645375 2.43679297 105.32104748 2.46498732 C122.64240432 2.51043643 139.96376809 2.54705902 157.28515625 2.578125 C174.10938739 2.60831824 190.93360157 2.64267208 207.7578125 2.68261719 C208.79518517 2.68507874 209.83255785 2.68754028 210.90136606 2.69007643 C216.10565794 2.70245118 221.30994963 2.71490768 226.51424122 2.72740483 C269.67613715 2.83094446 312.83805416 2.92015702 356 3 C357.30579787 6.9173936 357.13708622 10.63755701 357.12584114 14.72050095 C357.12729458 15.6268336 357.12874802 16.53316625 357.13024551 17.46696353 C357.13392174 20.53208968 357.13041156 23.59716661 357.12698364 26.66229248 C357.12813483 28.87078605 357.12972233 31.07927944 357.13171089 33.28777242 C357.13590473 39.37872879 357.13381325 45.46966959 357.13072467 51.56062603 C357.12870218 57.44802173 357.13135536 63.33541405 357.13387203 69.22280928 C357.1391458 82.01345537 357.13867812 94.80409647 357.13579312 107.59474304 C357.13328023 118.79036847 357.13261961 129.98599208 357.13381577 141.18161774 C357.13393034 142.29440741 357.13393034 142.29440741 357.13404724 143.42967768 C357.13435856 146.44096882 357.13467696 149.45225996 357.135007 152.4635511 C357.1380683 180.73181685 357.13528912 209.00007942 357.1299101 237.26834467 C357.12516621 262.38983565 357.12558722 287.51132156 357.13037109 312.6328125 C357.13572506 340.84245165 357.13784925 369.05208799 357.13475883 397.26172757 C357.13443811 400.26885811 357.13412527 403.27598866 357.13381577 406.2831192 C357.13373669 407.0235764 357.13365761 407.76403359 357.13357614 408.52692888 C357.13243819 419.71347694 357.13376986 430.90002297 357.13629532 442.08657074 C357.13915295 454.80806201 357.13844332 467.5295475 357.13301457 480.25103804 C357.13038252 486.74493402 357.12936413 493.2388197 357.13266373 499.73271561 C357.13563694 505.67406055 357.13401665 511.61538562 357.12868617 517.55672875 C357.12756637 519.70950827 357.12814356 521.86228945 357.13056196 524.01506791 C357.13359175 526.93544749 357.13049455 529.85575852 357.12584114 532.77613449 C357.12818231 533.61681701 357.13052347 534.45749953 357.13293558 535.32365727 C357.13043207 536.10693127 357.12792855 536.89020527 357.12534916 537.69721484 C357.12524753 538.69783759 357.12524753 538.69783759 357.12514383 539.71867494 C356.95444659 542.8304216 356.44072905 545.91489664 356 549 C238.52 549 121.04 549 0 549 C-0.33 370.47 -0.66 191.94 -1 8 C-1.66 8 -2.32 8 -3 8 C-3.1875 5.125 -3.1875 5.125 -3 2 C-2.01 1.34 -1.02 0.68 0 0 Z M24 27 C24 191.34 24 355.68 24 525 C125.97 525 227.94 525 333 525 C333 360.66 333 196.32 333 27 C231.03 27 129.06 27 24 27 Z " fill="#0B0B0B" transform="translate(43,22)"/>
<path d="M0 0 C20.46 0 40.92 0 62 0 C69.26315789 24.90225564 69.26315789 24.90225564 71.90234375 34.16796875 C73.44475365 39.55268091 75.00100453 44.93329421 76.5625 50.3125 C76.85576172 51.32763672 77.14902344 52.34277344 77.45117188 53.38867188 C78.71818848 57.74457771 80.00362266 62.08127383 81.46875 66.375 C83.51513222 72.41267317 85.20358987 78.55441216 86.9375 84.6875 C87.27201172 85.86505859 87.60652344 87.04261719 87.95117188 88.25585938 C88.62849602 90.64019696 89.30516955 93.02471945 89.98120117 95.40942383 C92.72909149 105.09387695 95.49810762 114.77215306 98.3125 124.4375 C98.61027344 125.46045166 98.90804687 126.48340332 99.21484375 127.53735352 C101.25571279 134.52122023 103.36128361 141.48306311 105.5 148.4375 C107.98125727 156.50853255 110.31329715 164.61135553 112.5625 172.75 C114.83873467 180.98379494 117.24459333 189.15400794 119.86035156 197.28613281 C122.03216131 204.0425477 124.04069598 210.84118802 126.01953125 217.65625 C126.64284811 219.781984 127.29948098 221.89844295 128 224 C128 226.31 128 228.62 128 231 C96.65 231 65.3 231 33 231 C31.77535055 225.48907746 30.69332397 220.40921098 30 214.875 C29.835 213.59109375 29.67 212.3071875 29.5 210.984375 C29.24903185 208.99035464 28.99951894 206.99615528 28.75 205.00195312 C27.89621579 198.2183708 27.02024111 191.52369799 25.42871094 184.87060547 C24.79880431 182.12211766 24.46063046 179.36056212 24.125 176.5625 C23.03164282 167.9302687 21.68090863 159.34213545 20.32080078 150.74829102 C20.06532471 149.11718384 20.06532471 149.11718384 19.8046875 147.453125 C19.64983887 146.47504883 19.49499023 145.49697266 19.33544922 144.48925781 C19 142 19 142 19 139 C17.68 139 16.36 139 15 139 C15.967465 145.74949114 17.05680642 152.44680315 18.4375 159.125 C22.01074904 176.7232515 24.18710598 194.5442552 26.50439453 212.34228516 C26.85077634 214.8986853 27.21315826 217.4475896 27.60107422 219.99755859 C27.88942139 221.90722412 27.88942139 221.90722412 28.18359375 223.85546875 C28.3633374 225.01071045 28.54308105 226.16595215 28.72827148 227.35620117 C28.81794189 228.22865479 28.9076123 229.1011084 29 230 C27.11114805 231.88885195 24.35948241 231.12010635 21.84675598 231.12442017 C20.9620311 231.12082489 20.07730621 231.11722961 19.16577148 231.11352539 C18.23903625 231.11367142 17.31230103 231.11381744 16.35748291 231.1139679 C13.27866313 231.11326838 10.19990303 231.10547421 7.12109375 231.09765625 C4.99259982 231.09579221 2.86410547 231.09436824 0.73561096 231.09336853 C-4.8786232 231.08954228 -10.49283168 231.07971108 -16.10705566 231.06866455 C-21.83113253 231.05845273 -27.55521353 231.0538714 -33.27929688 231.04882812 C-44.51954256 231.03808891 -55.75976915 231.0210112 -67 231 C-65.02573721 219.49349463 -65.02573721 219.49349463 -63.265625 213.9765625 C-62.94174805 212.94611816 -62.61787109 211.91567383 -62.28417969 210.85400391 C-61.94290039 209.78843262 -61.60162109 208.72286133 -61.25 207.625 C-60.52946083 205.33389525 -59.81073528 203.0422194 -59.09375 200.75 C-58.56201172 199.05037109 -58.56201172 199.05037109 -58.01953125 197.31640625 C-56.52051935 192.44031007 -55.12795469 187.53643706 -53.75 182.625 C-51.93181874 176.15651713 -49.98130933 169.77040829 -47.796875 163.4140625 C-46.90025301 160.69782531 -46.21324565 157.97450596 -45.5625 155.19140625 C-44.51578561 151.11358143 -43.19216254 147.11534401 -41.9375 143.09765625 C-41.21641399 140.71506788 -40.56621671 138.35908756 -40 135.9375 C-38.97427023 131.59646508 -37.4803864 127.42672231 -36 123.22265625 C-35.21660132 120.69803161 -34.59510118 118.26858452 -34.04296875 115.69140625 C-33.0355378 111.0052369 -31.71825743 106.45528986 -30.3125 101.875 C-30.05557373 101.02752197 -29.79864746 100.18004395 -29.53393555 99.30688477 C-28.69314483 96.53673241 -27.84723996 93.76818636 -27 91 C-26.0745385 87.97494717 -25.1492807 84.94983468 -24.2253418 81.92431641 C-23.63491253 79.99243312 -23.04274438 78.06108006 -22.44848633 76.13037109 C-21.06460777 71.61021354 -19.73646909 67.08450359 -18.5078125 62.51953125 C-16.99034805 56.88758604 -15.28928474 51.32073296 -13.5625 45.75 C-11.08472126 37.74076872 -8.82406746 29.73538392 -6.921875 21.5703125 C-6.61765625 20.72210938 -6.3134375 19.87390625 -6 19 C-5.01 18.67 -4.02 18.34 -3 18 C-2.87882812 18.82242188 -2.75765625 19.64484375 -2.6328125 20.4921875 C-1.86224242 25.62536971 -1.09318512 30.73699766 0 35.8125 C0.84992624 39.90549695 1.39261916 43.98971685 1.8828125 48.140625 C3.01219304 57.43807586 4.43306206 66.68425106 5.875 75.9375 C6.14031184 77.65345601 6.40544668 79.36943939 6.67041016 81.08544922 C7.84873714 88.7004582 9.04338613 96.31239912 10.28125 103.91796875 C10.4683252 105.0685376 10.65540039 106.21910645 10.84814453 107.40454102 C11.18894297 109.48770698 11.53342265 111.57027548 11.88232422 113.65209961 C12.0320166 114.56354736 12.18170898 115.47499512 12.3359375 116.4140625 C12.46532715 117.1870166 12.5947168 117.9599707 12.72802734 118.75634766 C13.02305808 121.19021885 13.0459284 123.55066545 13 126 C14.32 126 15.64 126 17 126 C16.84144531 125.1440625 16.68289062 124.288125 16.51953125 123.40625 C12.55907 101.5252486 9.22538336 79.52564709 6.34399414 57.47753906 C5.72385648 52.81421165 5.10749254 48.2015329 4.0234375 43.62109375 C2.65508966 37.81009258 1.88378111 31.90998011 1.08520508 25.99804688 C0.81281003 24.00227149 0.52472176 22.00914294 0.23632812 20.015625 C0.06166016 18.73171875 -0.11300781 17.4478125 -0.29296875 16.125 C-0.4530542 14.97257812 -0.61313965 13.82015625 -0.77807617 12.6328125 C-1 9 -1 9 0 0 Z " fill="#080808" transform="translate(182,71)"/>
<path d="M0 0 C1.82268784 0.47343743 3.64370303 0.95419898 5.45598125 1.46604037 C10.93452211 2.61592169 16.59765001 2.28729024 22.17346191 2.2784729 C23.61580006 2.28348048 25.0581354 2.28935763 26.50046682 2.29602563 C30.45015421 2.31178374 34.39977037 2.315254 38.3494854 2.31667423 C42.61389047 2.32037561 46.87825681 2.33553477 51.14263916 2.34928894 C58.52642916 2.37154242 65.91020535 2.3865672 73.29402161 2.39665604 C83.96972237 2.41125321 94.645375 2.43679297 105.32104748 2.46498732 C122.64240432 2.51043643 139.96376809 2.54705902 157.28515625 2.578125 C174.10938739 2.60831824 190.93360157 2.64267208 207.7578125 2.68261719 C208.79518517 2.68507874 209.83255785 2.68754028 210.90136606 2.69007643 C216.10565794 2.70245118 221.30994963 2.71490768 226.51424122 2.72740483 C269.67613715 2.83094446 312.83805416 2.92015702 356 3 C357.30579787 6.9173936 357.13708622 10.63755701 357.12584114 14.72050095 C357.12729458 15.6268336 357.12874802 16.53316625 357.13024551 17.46696353 C357.13392174 20.53208968 357.13041156 23.59716661 357.12698364 26.66229248 C357.12813483 28.87078605 357.12972233 31.07927944 357.13171089 33.28777242 C357.13590473 39.37872879 357.13381325 45.46966959 357.13072467 51.56062603 C357.12870218 57.44802173 357.13135536 63.33541405 357.13387203 69.22280928 C357.1391458 82.01345537 357.13867812 94.80409647 357.13579312 107.59474304 C357.13328023 118.79036847 357.13261961 129.98599208 357.13381577 141.18161774 C357.13393034 142.29440741 357.13393034 142.29440741 357.13404724 143.42967768 C357.13435856 146.44096882 357.13467696 149.45225996 357.135007 152.4635511 C357.1380683 180.73181685 357.13528912 209.00007942 357.1299101 237.26834467 C357.12516621 262.38983565 357.12558722 287.51132156 357.13037109 312.6328125 C357.13572506 340.84245165 357.13784925 369.05208799 357.13475883 397.26172757 C357.13443811 400.26885811 357.13412527 403.27598866 357.13381577 406.2831192 C357.13373669 407.0235764 357.13365761 407.76403359 357.13357614 408.52692888 C357.13243819 419.71347694 357.13376986 430.90002297 357.13629532 442.08657074 C357.13915295 454.80806201 357.13844332 467.5295475 357.13301457 480.25103804 C357.13038252 486.74493402 357.12936413 493.2388197 357.13266373 499.73271561 C357.13563694 505.67406055 357.13401665 511.61538562 357.12868617 517.55672875 C357.12756637 519.70950827 357.12814356 521.86228945 357.13056196 524.01506791 C357.13359175 526.93544749 357.13049455 529.85575852 357.12584114 532.77613449 C357.12818231 533.61681701 357.13052347 534.45749953 357.13293558 535.32365727 C357.13043207 536.10693127 357.12792855 536.89020527 357.12534916 537.69721484 C357.12524753 538.69783759 357.12524753 538.69783759 357.12514383 539.71867494 C356.95444659 542.8304216 356.44072905 545.91489664 356 549 C238.52 549 121.04 549 0 549 C0 548.67 0 548.34 0 548 C117.15 548 234.3 548 355 548 C355 368.48 355 188.96 355 4 C237.85 4 120.7 4 0 4 C-0.33 5.32 -0.66 6.64 -1 8 C-1.66 8 -2.32 8 -3 8 C-3.1875 5.125 -3.1875 5.125 -3 2 C-2.01 1.34 -1.02 0.68 0 0 Z " fill="#A5A5A5" transform="translate(43,22)"/>
<path d="M0 0 C1.82268784 0.47343743 3.64370303 0.95419898 5.45598125 1.46604037 C10.93452211 2.61592169 16.59765001 2.28729024 22.17346191 2.2784729 C23.61580006 2.28348048 25.0581354 2.28935763 26.50046682 2.29602563 C30.45015421 2.31178374 34.39977037 2.315254 38.3494854 2.31667423 C42.61389047 2.32037561 46.87825681 2.33553477 51.14263916 2.34928894 C58.52642916 2.37154242 65.91020535 2.3865672 73.29402161 2.39665604 C83.96972237 2.41125321 94.645375 2.43679297 105.32104748 2.46498732 C122.64240432 2.51043643 139.96376809 2.54705902 157.28515625 2.578125 C174.10938739 2.60831824 190.93360157 2.64267208 207.7578125 2.68261719 C208.79518517 2.68507874 209.83255785 2.68754028 210.90136606 2.69007643 C216.10565794 2.70245118 221.30994963 2.71490768 226.51424122 2.72740483 C269.67613715 2.83094446 312.83805416 2.92015702 356 3 C355.67 3.99 355.34 4.98 355 6 C355 5.34 355 4.68 355 4 C237.85 4 120.7 4 0 4 C-0.33 5.32 -0.66 6.64 -1 8 C-1.66 8 -2.32 8 -3 8 C-3.1875 5.125 -3.1875 5.125 -3 2 C-2.01 1.34 -1.02 0.68 0 0 Z " fill="#FEFEFE" transform="translate(43,22)"/>
<path d="M0 0 C10.4576144 -0.36909227 10.4576144 -0.36909227 12.8828125 1.28125 C14.54241007 3.83447704 13.69516488 5.92679394 13.1953125 8.79296875 C12.87070293 12.46105685 13.93804971 15.50181082 15 19 C13.35 18.67 11.7 18.34 10 18 C9.67 16.02 9.34 14.04 9 12 C7.35 12 5.7 12 4 12 C4 14.31 4 16.62 4 19 C2.68 19 1.36 19 0 19 C0 12.73 0 6.46 0 0 Z M4 3 C4 4.98 4 6.96 4 9 C5.98 8.67 7.96 8.34 10 8 C9.67 6.35 9.34 4.7 9 3 C7.35 3 5.7 3 4 3 Z " fill="#AEAEAE" transform="translate(278,139)"/>
<path d="M0 0 C1.28317892 3.84953676 1.06643637 6.94738135 1 11 C1.66 11 2.32 11 3 11 C3 12.32 3 13.64 3 15 C1.04233719 15.08082094 -0.91626728 15.13910778 -2.875 15.1875 C-4.51082031 15.23970703 -4.51082031 15.23970703 -6.1796875 15.29296875 C-7.11039062 15.19628906 -8.04109375 15.09960938 -9 15 C-11.3192061 11.52119085 -11.18399386 10.48086069 -10.8125 6.4375 C-10.73644531 5.46683594 -10.66039062 4.49617188 -10.58203125 3.49609375 C-9.21105256 -2.38347257 -4.72552098 -0.89160773 0 0 Z M-7 3 C-7.33 3.66 -7.66 4.32 -8 5 C-6.35 4.67 -4.7 4.34 -3 4 C-4.32 3.67 -5.64 3.34 -7 3 Z M-6 8 C-6.33 8.99 -6.66 9.98 -7 11 C-5.68 10.67 -4.36 10.34 -3 10 C-3 9.34 -3 8.68 -3 8 C-3.99 8 -4.98 8 -6 8 Z " fill="#8E8E8E" transform="translate(322,405)"/>
<path d="M0 0 C0.99 0 1.98 0 3 0 C3.33 3.63 3.66 7.26 4 11 C5.32 11.33 6.64 11.66 8 12 C8 8.37 8 4.74 8 1 C9.32 1 10.64 1 12 1 C12 5.95 12 10.9 12 16 C8.50997719 16.22662486 5.44098182 16.41557751 2 16 C-0.66547062 13.64811416 -0.92601781 11.95584988 -1.1953125 8.4765625 C-1.24585279 5.95676788 -1.2415962 3.50888359 -1 1 C-0.67 0.67 -0.34 0.34 0 0 Z " fill="#6B6B6B" transform="translate(326,404)"/>
<path d="M0 0 C0 1.32 0 2.64 0 4 C-2.97 3.505 -2.97 3.505 -6 3 C-6 3.66 -6 4.32 -6 5 C-5.236875 4.938125 -4.47375 4.87625 -3.6875 4.8125 C-1 5 -1 5 0.875 6.1875 C2 8 2 8 1.8125 10.5625 C1 13 1 13 -1 15 C-5.05261287 15.34490322 -6.54754176 15.30163882 -10 13 C-10 12.01 -10 11.02 -10 10 C-7.69 10 -5.38 10 -3 10 C-4.4540625 9.4121875 -4.4540625 9.4121875 -5.9375 8.8125 C-9 7 -9 7 -10.0625 4.5 C-10 2 -10 2 -9 0.125 C-5.89740743 -1.62020832 -3.3726293 -0.69997967 0 0 Z " fill="#8F8F8F" transform="translate(350,405)"/>
<path d="M0 0 C4.95 0 9.9 0 15 0 C15 0.99 15 1.98 15 3 C13.02 3 11.04 3 9 3 C9 8.28 9 13.56 9 19 C8.01 19 7.02 19 6 19 C6 13.72 6 8.44 6 3 C4.02 3 2.04 3 0 3 C0 2.01 0 1.02 0 0 Z " fill="#6A6A6A" transform="translate(293,139)"/>
<path d="M0 0 C3.63 0 7.26 0 11 0 C11.33 2.31 11.66 4.62 12 7 C9.28817788 9.60334924 8.10866187 9.99456691 4.25 10.1875 C2.64125 10.0946875 2.64125 10.0946875 1 10 C1 12.31 1 14.62 1 17 C0.67 17 0.34 17 0 17 C0 11.39 0 5.78 0 0 Z M2 2 C2 3.98 2 5.96 2 8 C3.98 7.67 5.96 7.34 8 7 C7.67 5.35 7.34 3.7 7 2 C5.35 2 3.7 2 2 2 Z " fill="#3C3C3C" transform="translate(280,140)"/>
<path d="M0 0 C1.65 0.33 3.3 0.66 5 1 C4.25 5.75 4.25 5.75 2 8 C-2.05261287 8.34490322 -3.54754176 8.30163882 -7 6 C-7 5.01 -7 4.02 -7 3 C-4.03 3.33 -1.06 3.66 2 4 C1.34 2.68 0.68 1.36 0 0 Z " fill="#818181" transform="translate(347,412)"/>
<path d="M0 0 C3.875 0.875 3.875 0.875 5 2 C5.14115161 4.67058851 5.04247107 7.32432238 5 10 C5.66 10 6.32 10 7 10 C7 11.32 7 12.64 7 14 C5.68 14 4.36 14 3 14 C3 13.01 3 12.02 3 11 C2.34 10.67 1.68 10.34 1 10 C1.33 8.68 1.66 7.36 2 6 C0.68 5.67 -0.64 5.34 -2 5 C-0.68 4.67 0.64 4.34 2 4 C2 3.01 2 2.02 2 1 C1.34 0.67 0.68 0.34 0 0 Z " fill="#5B5B5B" transform="translate(318,406)"/>
<path d="M0 0 C0.99 0.33 1.98 0.66 3 1 C3 5.95 3 10.9 3 16 C-0.3 16 -3.6 16 -7 16 C-7.33 15.34 -7.66 14.68 -8 14 C-6.6078125 14.0309375 -6.6078125 14.0309375 -5.1875 14.0625 C-1.97713989 14.15769604 -1.97713989 14.15769604 1 13 C1 9.7 1 6.4 1 3 C0.67 5.97 0.34 8.94 0 12 C-0.33 12 -0.66 12 -1 12 C-1.02687279 10.18757948 -1.04633715 8.37504767 -1.0625 6.5625 C-1.07410156 5.55316406 -1.08570313 4.54382813 -1.09765625 3.50390625 C-1 1 -1 1 0 0 Z " fill="#E0E0E0" transform="translate(335,404)"/>
<path d="M0 0 C-0.33 0.66 -0.66 1.32 -1 2 C-1.33 2.99 -1.66 3.98 -2 5 C-3.84765625 5.94921875 -3.84765625 5.94921875 -6.0625 6.6875 C-7.16271484 7.06455078 -7.16271484 7.06455078 -8.28515625 7.44921875 C-8.85105469 7.63097656 -9.41695313 7.81273437 -10 8 C-10.1875 4.625 -10.1875 4.625 -10 1 C-6.1496895 -1.56687367 -4.41430237 -0.83288724 0 0 Z M-7 3 C-7.33 3.66 -7.66 4.32 -8 5 C-6.35 4.67 -4.7 4.34 -3 4 C-4.32 3.67 -5.64 3.34 -7 3 Z " fill="#B4B4B4" transform="translate(322,405)"/>
<path d="M0 0 C0.66 0 1.32 0 2 0 C3.00496852 3.01490557 3.10335303 5.04181692 3.0625 8.1875 C3.05347656 9.08855469 3.04445312 9.98960938 3.03515625 10.91796875 C3.02355469 11.60503906 3.01195312 12.29210937 3 13 C2.67 13 2.34 13 2 13 C2 10.69 2 8.38 2 6 C1.01 6 0.02 6 -1 6 C-1.042721 4.33388095 -1.04063832 2.66617115 -1 1 C-0.67 0.67 -0.34 0.34 0 0 Z " fill="#ADADAD" transform="translate(177,89)"/>
<path d="M0 0 C0.33 0 0.66 0 1 0 C1 2.31 1 4.62 1 7 C-2.3 7 -5.6 7 -9 7 C-9.33 6.34 -9.66 5.68 -10 5 C-9.071875 5.020625 -8.14375 5.04125 -7.1875 5.0625 C-3.97713989 5.15769604 -3.97713989 5.15769604 -1 4 C-0.26676204 1.98491642 -0.26676204 1.98491642 0 0 Z " fill="#D8D8D8" transform="translate(337,413)"/>
<path d="M0 0 C0.99 0 1.98 0 3 0 C3 1.65 3 3.3 3 5 C1.02 5.99 1.02 5.99 -1 7 C-1.66 6.34 -2.32 5.68 -3 5 C-2.01 5 -1.02 5 0 5 C0 3.35 0 1.7 0 0 Z " fill="#575757" transform="translate(289,142)"/>
</svg>
